<svg id="Group_1008" data-name="Group 1008" xmlns="http://www.w3.org/2000/svg" width="60.37" height="35.209" viewBox="0 0 60.37 35.209">
  <path id="Path_632" data-name="Path 632" d="M76.7,411.585a49.087,49.087,0,0,1,15.225-2.311,53.715,53.715,0,0,1,5.891.321c12.92,1.592,22.595,8.083,22.595,15.8,0,8.955-12.876,16.173-28.755,16.173S62.9,434.346,62.9,425.392c0-5.83,5.524-10.96,13.8-13.806Z" transform="translate(-61.468 -407.787)" fill="#fff" fill-rule="evenodd"/>
  <path id="Path_633" data-name="Path 633" d="M71.727,437.267c0-8.9,12.821-16.118,28.7-16.118,12.471,0,23.088,4.453,27.072,10.676a9.9,9.9,0,0,1,1.415,5.008c0,8.955-12.876,16.173-28.755,16.173-11.64,0-21.667-3.879-26.19-9.478a10.37,10.37,0,0,1-2.242-6.262Z" transform="translate(-69.975 -419.228)" fill="#048" fill-rule="evenodd"/>
  <path id="Path_634" data-name="Path 634" d="M414.113,816.861H401.023l-.482-2.388H395.5l-.7,1.9c3.916,3.147,10.032,5.156,16.9,5.156,6.491,0,12.285-1.791,16.255-4.613h-6.438l-.8-11.017h-1.663l.269,5.59h-5.2v5.373Z" transform="translate(-381.247 -789.922)" fill="#cd0015" fill-rule="evenodd"/>
  <path id="Path_635" data-name="Path 635" d="M402.129,495.912H410.5l2.9,8.955.269-8.955h21.727a24.681,24.681,0,0,0-9.55-4.233v1.466h-2.2V491.3c-.59-.108-1.18-.163-1.771-.217v3.311h-2.2v-3.419H417.9v3.419h-2.2v-3.311a16.126,16.126,0,0,0-1.771.217v1.846h-2.253v-1.466a25.421,25.421,0,0,0-9.549,4.233Z" transform="translate(-388.307 -486.502)" fill="#cd0015" fill-rule="evenodd"/>
  <path id="Path_636" data-name="Path 636" d="M1303.8,673.253l1.074,8.3h3.861a8.83,8.83,0,0,0,.323-2.388,10.034,10.034,0,0,0-3.058-6.945l-2.2,1.03Z" transform="translate(-1257.041 -661.13)" fill="#cd0015" fill-rule="evenodd"/>
  <path id="Path_637" data-name="Path 637" d="M273.116,674.458l-1.664-.76a10.117,10.117,0,0,0-2.95,6.892,9.837,9.837,0,0,0,.053,1.248l4.561-7.38Z" transform="translate(-259.561 -662.551)" fill="#cd0015" fill-rule="evenodd"/>
  <path id="Path_638" data-name="Path 638" d="M253.259,664.685h-13.25l-1.18-14.761h8.047l-4.131,1.791h1.663l1.18,9.28h6.76l.912,3.691ZM235.4,656l.16,3.257h-5.364v5.427H219.354l-.536-2.334h-6.491l-1.18,2.334h-5.794l7.94-12.97h1.824l-3.863-1.791h8.8l4.453,13.35h.162l.429-13.35h12.66l.269,3.637h-7.833V656Z" transform="translate(-198.718 -639.646)" fill="#fff" fill-rule="evenodd"/>
  <path id="Path_639" data-name="Path 639" d="M436.185,755.4h-.322l-2.9,5.861h4.56l-1.34-5.861Z" transform="translate(-418.017 -741.267)" fill="#048" fill-rule="evenodd"/>
  <path id="Path_640" data-name="Path 640" d="M234.835,450.874c-13.036,0-23.6,6.729-23.6,15.032a9.34,9.34,0,0,0,.7,3.637l1.127-1.846a10.047,10.047,0,0,1-.161-1.791c0-6.512,6.6-11.993,15.665-13.784V453.7h.644v-1.683a32.678,32.678,0,0,1,3.327-.434v3.365h.642v-3.365c.537-.054,1.127-.054,1.664-.054.589,0,1.127,0,1.716.054v3.365h.59v-3.365a33.8,33.8,0,0,1,3.381.434V453.7h.642v-1.574c9.067,1.791,15.666,7.272,15.666,13.784a8.869,8.869,0,0,1-.323,2.388h1.664a8.9,8.9,0,0,0,.321-2.388c0-8.3-10.567-15.032-23.658-15.032Z" transform="translate(-204.382 -447.867)" fill="#fff" fill-rule="evenodd"/>
  <path id="Path_641" data-name="Path 641" d="M357.941,1112.9c-6.975,0-13.144-2.116-17.166-5.427H339c4.29,3.691,11.158,6.025,18.937,6.025s14.7-2.388,18.992-6.025h-1.771c-4.025,3.311-10.247,5.427-17.221,5.427Z" transform="translate(-327.488 -1080.479)" fill="#fff" fill-rule="evenodd"/>
  <path id="Path_642" data-name="Path 642" d="M53.95,403.778c-16.926,0-30.184-7.733-30.184-17.6s13.258-17.6,30.184-17.6,30.185,7.732,30.185,17.6-13.258,17.6-30.185,17.6Zm0-32.779c-15.3,0-27.753,6.807-27.753,15.174s12.45,15.174,27.753,15.174,27.755-6.808,27.755-15.174S69.254,371,53.95,371Z" transform="translate(-23.766 -368.569)" fill="#fff"/>
</svg>
