<svg xmlns="http://www.w3.org/2000/svg" width="35.188" height="44.904" viewBox="0 0 35.188 44.904">
  <path id="Path_692" data-name="Path 692" d="M179.085,25.754V23.739H174.45V16.657H172.1v7.359l1.46,1.737Zm-22.128-9.1H154.75v9.1h2.218V20.721h.044l3.2,5.033h2.184V18.583h4.925c.914,0,1.359.4,1.359,1.247a1.125,1.125,0,0,1-1.226,1.224H166.06V19.618h-2.34v6.136h2.34V23.037h1.125l2.206,2.717h2.886l-2.719-3.263a3.036,3.036,0,0,0,1.382-2.717c0-1.949-1.326-3.117-3.454-3.117h-7.365v5.055h-.045Zm-5.817-2.873V28.426l15.343,8.852,15.354-8.852V13.784s-7.621-.869-15.354-.869A148.016,148.016,0,0,0,151.14,13.784Zm0,19.719v2.761l15.343,8.863,15.354-8.863V33.5l-15.354,8.863Zm.111,7.916a6.01,6.01,0,0,0,3.065,4.532l12.167,7.026,12.168-7.026a6.011,6.011,0,0,0,3.064-4.532L166.483,50.2Zm31.7-1.559v.179c0,.278-.011.412-.022.668a7.373,7.373,0,0,1-3.721,6.224l-12.725,7.338-12.724-7.338a7.219,7.219,0,0,1-3.71-6.213h-.011c-.011-.267-.022-.4-.022-.679V12.782a151.887,151.887,0,0,1,16.468-.991,151.623,151.623,0,0,1,16.469.991ZM166.483,10.667a150.7,150.7,0,0,0-17.594,1.124V39.861c0,3.73,1.493,6.414,4.3,8.039l13.293,7.671L179.776,47.9c2.808-1.625,4.3-4.309,4.3-8.039V11.791A150.685,150.685,0,0,0,166.483,10.667Z" transform="translate(-148.889 -10.667)" fill="#00d470" fill-rule="evenodd"/>
</svg>
