<svg xmlns="http://www.w3.org/2000/svg" width="43.954" height="27.922" viewBox="0 0 43.954 27.922">
  <g id="Group_2182" data-name="Group 2182" transform="translate(-640.522 -2409.861)">
    <rect id="Rectangle_797" data-name="Rectangle 797" width="43.954" height="27.922" transform="translate(640.522 2409.861)" fill="#fff"/>
    <rect id="Rectangle_798" data-name="Rectangle 798" width="42.489" height="3.809" transform="translate(641.253 2433.246)" fill="#ffa100"/>
    <rect id="Rectangle_799" data-name="Rectangle 799" width="42.489" height="3.811" transform="translate(641.253 2410.593)" fill="#00296d"/>
    <path id="Path_706" data-name="Path 706" d="M498.52,229.743l-4.39,10.472h-2.862l-2.16-8.358a1.143,1.143,0,0,0-.645-.919,11.318,11.318,0,0,0-2.668-.893l.061-.3h4.609a1.264,1.264,0,0,1,1.25,1.067l1.141,6.06,2.817-7.127Zm11.22,7.053c.012-2.764-3.822-2.917-3.8-4.151.009-.375.367-.776,1.148-.878a5.11,5.11,0,0,1,2.673.468l.473-2.221a7.3,7.3,0,0,0-2.533-.463c-2.677,0-4.561,1.423-4.576,3.462-.017,1.506,1.345,2.347,2.369,2.849,1.058.513,1.412.842,1.406,1.3-.006.7-.844,1.012-1.62,1.025a5.657,5.657,0,0,1-2.783-.663l-.492,2.295a8.23,8.23,0,0,0,3.012.558c2.847,0,4.709-1.406,4.718-3.583m7.072,3.419h2.5l-2.188-10.472h-2.312a1.229,1.229,0,0,0-1.152.768l-4.064,9.7h2.844l.566-1.565h3.473Zm-3.025-3.711,1.427-3.932.82,3.932Zm-11.4-6.761-2.239,10.472h-2.709l2.239-10.472Z" transform="translate(159.74 2188.858)" fill="#00296d"/>
  </g>
</svg>
