<?xml version="1.0" encoding="UTF-8" standalone="no"?>
<svg
   xmlns:dc="http://purl.org/dc/elements/1.1/"
   xmlns:cc="http://creativecommons.org/ns#"
   xmlns:rdf="http://www.w3.org/1999/02/22-rdf-syntax-ns#"
   xmlns:svg="http://www.w3.org/2000/svg"
   xmlns="http://www.w3.org/2000/svg"
   xmlns:xlink="http://www.w3.org/1999/xlink"
   xmlns:sodipodi="http://sodipodi.sourceforge.net/DTD/sodipodi-0.dtd"
   xmlns:inkscape="http://www.inkscape.org/namespaces/inkscape"
   width="100.872"
   height="33.905"
   viewBox="0 0 100.872 33.905"
   version="1.1"
   id="svg145"
   sodipodi:docname="icon_baskaus.svg"
   inkscape:version="0.92.1 r15371">
  <metadata
     id="metadata149">
    <rdf:RDF>
      <cc:Work
         rdf:about="">
        <dc:format>image/svg+xml</dc:format>
        <dc:type
           rdf:resource="http://purl.org/dc/dcmitype/StillImage" />
      </cc:Work>
    </rdf:RDF>
  </metadata>
  <sodipodi:namedview
     pagecolor="#ffffff"
     bordercolor="#666666"
     borderopacity="1"
     objecttolerance="10"
     gridtolerance="10"
     guidetolerance="10"
     inkscape:pageopacity="0"
     inkscape:pageshadow="2"
     inkscape:window-width="640"
     inkscape:window-height="480"
     id="namedview147"
     showgrid="false"
     inkscape:zoom="5.6308985"
     inkscape:cx="67.519808"
     inkscape:cy="5.754499"
     inkscape:current-layer="Group_2181" />
  <defs
     id="defs131">
    <linearGradient
       id="linear-gradient"
       y1="0.5"
       x2="1"
       y2="0.5"
       gradientUnits="objectBoundingBox">
      <stop
         offset="0"
         stop-color="#f9a51a"
         id="stop2" />
      <stop
         offset="0.042"
         stop-color="#f8a01a"
         id="stop4" />
      <stop
         offset="0.089"
         stop-color="#f6921d"
         id="stop6" />
      <stop
         offset="0.11"
         stop-color="#f58a1f"
         id="stop8" />
      <stop
         offset="0.22"
         stop-color="#f4851f"
         id="stop10" />
      <stop
         offset="0.345"
         stop-color="#f37720"
         id="stop12" />
      <stop
         offset="0.456"
         stop-color="#f16522"
         id="stop14" />
    </linearGradient>
    <linearGradient
       id="linear-gradient-2"
       y1="0.5"
       x2="1"
       y2="0.5"
       gradientUnits="objectBoundingBox">
      <stop
         offset="0"
         stop-color="#f47920"
         stop-opacity="0"
         id="stop17" />
      <stop
         offset="0.221"
         stop-color="#f69432"
         stop-opacity="0.263"
         id="stop19" />
      <stop
         offset="0.504"
         stop-color="#fab547"
         stop-opacity="0.576"
         id="stop21" />
      <stop
         offset="0.737"
         stop-color="#fccd57"
         stop-opacity="0.804"
         id="stop23" />
      <stop
         offset="0.909"
         stop-color="#fedc61"
         stop-opacity="0.945"
         id="stop25" />
      <stop
         offset="1"
         stop-color="#ffe265"
         id="stop27" />
    </linearGradient>
    <linearGradient
       id="linear-gradient-3"
       x1="-0.004"
       y1="0.37"
       x2="0.444"
       y2="0.506"
       gradientUnits="objectBoundingBox">
      <stop
         offset="0.09"
         stop-color="#fff"
         stop-opacity="0.851"
         id="stop30" />
      <stop
         offset="0.131"
         stop-color="#fffef9"
         stop-opacity="0.843"
         id="stop32" />
      <stop
         offset="0.178"
         stop-color="#fffbea"
         stop-opacity="0.827"
         id="stop34" />
      <stop
         offset="0.228"
         stop-color="#fff7d2"
         stop-opacity="0.804"
         id="stop36" />
      <stop
         offset="0.28"
         stop-color="#fff1af"
         stop-opacity="0.765"
         id="stop38" />
      <stop
         offset="0.333"
         stop-color="#ffe982"
         stop-opacity="0.718"
         id="stop40" />
      <stop
         offset="0.387"
         stop-color="#ffe04c"
         stop-opacity="0.663"
         id="stop42" />
      <stop
         offset="0.399"
         stop-color="#ffde40"
         stop-opacity="0.651"
         id="stop44" />
      <stop
         offset="0.479"
         stop-color="#fdd43c"
         stop-opacity="0.588"
         id="stop46" />
      <stop
         offset="0.635"
         stop-color="#fbba34"
         stop-opacity="0.424"
         id="stop48" />
      <stop
         offset="0.851"
         stop-color="#f69227"
         stop-opacity="0.161"
         id="stop50" />
      <stop
         offset="0.974"
         stop-color="#f47920"
         stop-opacity="0"
         id="stop52" />
    </linearGradient>
    <linearGradient
       id="linear-gradient-4"
       x1="-0.181"
       y1="0.676"
       x2="0.441"
       y2="0.525"
       gradientUnits="objectBoundingBox">
      <stop
         offset="0.09"
         stop-color="#fff"
         stop-opacity="0.851"
         id="stop55" />
      <stop
         offset="0.131"
         stop-color="#fffef9"
         stop-opacity="0.843"
         id="stop57" />
      <stop
         offset="0.178"
         stop-color="#fffbea"
         stop-opacity="0.827"
         id="stop59" />
      <stop
         offset="0.228"
         stop-color="#fff7d2"
         stop-opacity="0.804"
         id="stop61" />
      <stop
         offset="0.28"
         stop-color="#fff1af"
         stop-opacity="0.765"
         id="stop63" />
      <stop
         offset="0.333"
         stop-color="#ffe982"
         stop-opacity="0.718"
         id="stop65" />
      <stop
         offset="0.387"
         stop-color="#ffe04c"
         stop-opacity="0.663"
         id="stop67" />
      <stop
         offset="0.399"
         stop-color="#ffde40"
         stop-opacity="0.651"
         id="stop69" />
      <stop
         offset="0.479"
         stop-color="#fdd43c"
         stop-opacity="0.588"
         id="stop71" />
      <stop
         offset="0.635"
         stop-color="#fbba34"
         stop-opacity="0.424"
         id="stop73" />
      <stop
         offset="0.85"
         stop-color="#f69227"
         stop-opacity="0.161"
         id="stop75" />
      <stop
         offset="0.974"
         stop-color="#f47920"
         stop-opacity="0"
         id="stop77" />
    </linearGradient>
    <linearGradient
       id="linear-gradient-5"
       x1="-0.05"
       y1="1.943"
       x2="0.584"
       y2="-0.158"
       xlink:href="#linear-gradient-4" />
    <linearGradient
       id="linear-gradient-6"
       x1="0.064"
       y1="1.194"
       x2="0.423"
       y2="0.692"
       gradientUnits="objectBoundingBox">
      <stop
         offset="0.042"
         stop-color="#fff"
         stop-opacity="0.851"
         id="stop81" />
      <stop
         offset="0.09"
         stop-color="#fffef9"
         stop-opacity="0.843"
         id="stop83" />
      <stop
         offset="0.144"
         stop-color="#fffbea"
         stop-opacity="0.827"
         id="stop85" />
      <stop
         offset="0.202"
         stop-color="#fff7d2"
         stop-opacity="0.804"
         id="stop87" />
      <stop
         offset="0.262"
         stop-color="#fff1af"
         stop-opacity="0.765"
         id="stop89" />
      <stop
         offset="0.323"
         stop-color="#ffe982"
         stop-opacity="0.718"
         id="stop91" />
      <stop
         offset="0.385"
         stop-color="#ffe04c"
         stop-opacity="0.663"
         id="stop93" />
      <stop
         offset="0.399"
         stop-color="#ffde40"
         stop-opacity="0.651"
         id="stop95" />
      <stop
         offset="0.479"
         stop-color="#fdd43c"
         stop-opacity="0.588"
         id="stop97" />
      <stop
         offset="0.635"
         stop-color="#fbba34"
         stop-opacity="0.424"
         id="stop99" />
      <stop
         offset="0.85"
         stop-color="#f69227"
         stop-opacity="0.161"
         id="stop101" />
      <stop
         offset="0.974"
         stop-color="#f47920"
         stop-opacity="0"
         id="stop103" />
    </linearGradient>
    <radialGradient
       id="radial-gradient"
       cx="0.5"
       cy="0.5"
       fx="0.5819994807243347"
       fy="0.10885423421859741"
       r="0.522"
       gradientTransform="translate(0.04) scale(0.92 1)"
       gradientUnits="objectBoundingBox">
      <stop
         offset="0.053"
         stop-color="#fff"
         stop-opacity="0.851"
         id="stop106" />
      <stop
         offset="0.1"
         stop-color="#fffef9"
         stop-opacity="0.843"
         id="stop108" />
      <stop
         offset="0.152"
         stop-color="#fffbea"
         stop-opacity="0.827"
         id="stop110" />
      <stop
         offset="0.209"
         stop-color="#fff7d2"
         stop-opacity="0.804"
         id="stop112" />
      <stop
         offset="0.267"
         stop-color="#fff1af"
         stop-opacity="0.765"
         id="stop114" />
      <stop
         offset="0.327"
         stop-color="#ffe982"
         stop-opacity="0.718"
         id="stop116" />
      <stop
         offset="0.388"
         stop-color="#ffe04c"
         stop-opacity="0.663"
         id="stop118" />
      <stop
         offset="0.4"
         stop-color="#ffde40"
         stop-opacity="0.651"
         id="stop120" />
      <stop
         offset="0.48"
         stop-color="#fdd23d"
         stop-opacity="0.588"
         id="stop122" />
      <stop
         offset="0.636"
         stop-color="#fab335"
         stop-opacity="0.424"
         id="stop124" />
      <stop
         offset="0.851"
         stop-color="#f48329"
         stop-opacity="0.161"
         id="stop126" />
      <stop
         offset="0.974"
         stop-color="#f16522"
         stop-opacity="0"
         id="stop128" />
    </radialGradient>
  </defs>
  <g
     id="Group_2181"
     data-name="Group 2181"
     transform="translate(-914.391 -2304.667)">
    <g
       id="Group_1066"
       data-name="Group 1066"
       transform="translate(914.391 2304.667)">
      <path
         id="Path_683"
         data-name="Path 683"
         d="M78.736,99.142a20.581,20.581,0,0,1,.942-2.48A17.125,17.125,0,0,1,93.184,87a14.953,14.953,0,0,0-2.76.968,16.242,16.242,0,0,0-5.252,3.94A18.38,18.38,0,0,0,80.7,102.749a2.411,2.411,0,0,1-1.165-.456A2.788,2.788,0,0,1,78.736,99.142ZM83,113.009a18.4,18.4,0,0,1-1.257-2.813,13.53,13.53,0,0,1-3.538-3.942,9.755,9.755,0,0,0,2.057,4.277A13.276,13.276,0,0,0,83,113.009Zm-1.856-4.876a18.888,18.888,0,0,1-.49-4.121c0-.01,0-.019,0-.029a3.463,3.463,0,0,1-1.786-.875,4.015,4.015,0,0,1-.728-.886c0,.01-.041.508-.039.732v.094a4.879,4.879,0,0,0,1.128,3.226A12.807,12.807,0,0,0,81.14,108.133ZM86.01,92.64a17.207,17.207,0,0,0-4.1,10.008,4.128,4.128,0,0,0,.6-.212,8.1,8.1,0,0,0,2.655-2.159c3.8-4.426,5.5-8.488,10.956-11.113a10.375,10.375,0,0,1,5.736-.894,14.933,14.933,0,0,0-5.035-.785,13.889,13.889,0,0,0-5.97,1.4A15.171,15.171,0,0,0,86.01,92.64Zm28.954,12.486A17.957,17.957,0,0,0,109.6,94.557a12.326,12.326,0,0,0-8.294-3.084,11.479,11.479,0,0,0-3.888.688c-4.281,1.515-7.261,5.726-10.953,9.371a9.706,9.706,0,0,1-3.436,2.241,4.7,4.7,0,0,1-1.165.258,17.775,17.775,0,0,0,.738,5.114,9.45,9.45,0,0,0,1.736.824,9.882,9.882,0,0,0,6.724-.07,14.44,14.44,0,0,0,5.577-3.975c1.7-1.692,3.528-3.927,6.573-5a9.989,9.989,0,0,1,9.094,1.369,9.827,9.827,0,0,1,2.659,2.852ZM85.185,116.11c-.3-.332-.573-.678-.841-1.031-.263-.15-.527-.3-.784-.46a15.054,15.054,0,0,1-3.974-3.56l-.025-.035A17.164,17.164,0,0,0,90.056,120.3a17.021,17.021,0,0,0,2.711.6,14.909,14.909,0,0,1-2.334-.86A16.221,16.221,0,0,1,85.185,116.11Zm1.681.211c5.322,5.692,13.54,4.923,18.257,1.814q.584-.4,1.13-.845C97.488,120.4,89,117.212,86.867,116.321Zm22.574-10.375a5.553,5.553,0,0,0-3.7-1.459l-.236,0a5.943,5.943,0,0,0-1.179.146,8.867,8.867,0,0,0-3.438,1.813c-.7.536-1.423,1.141-2.156,1.759a19.59,19.59,0,0,1-5.36,3.413,10.875,10.875,0,0,1-1.663.516,12.429,12.429,0,0,1-6.165-.047,10.624,10.624,0,0,1-1.818-.691c-.128-.06-.25-.131-.375-.2a16.706,16.706,0,0,0,1.726,3.034,25.734,25.734,0,0,0,8.638,2.474,26.289,26.289,0,0,0,9.976-.682,13.644,13.644,0,0,0,4.361-2.044c.627-.466,2.318-1.875,2.634-3.53A4.714,4.714,0,0,0,109.44,105.946Z"
         transform="translate(-78.098 -86.997)"
         fill="url(#linear-gradient)" />
      <path
         id="Path_684"
         data-name="Path 684"
         d="M109.7,101.45a11.48,11.48,0,0,0-3.888.688c-4.281,1.515-7.261,5.726-10.953,9.371a9.706,9.706,0,0,1-3.436,2.241,4.7,4.7,0,0,1-1.165.258A17.774,17.774,0,0,0,91,119.123a9.45,9.45,0,0,0,1.736.824,9.882,9.882,0,0,0,6.724-.07,14.44,14.44,0,0,0,5.577-3.975c1.7-1.692,3.528-3.927,6.573-5a10,10,0,0,1,8.752,1.129,18.2,18.2,0,0,0-2.948-7.992A12.448,12.448,0,0,0,109.7,101.45Z"
         transform="translate(-86.492 -96.974)"
         fill="url(#linear-gradient-2)" />
      <path
         id="Path_685"
         data-name="Path 685"
         d="M93.681,101.361c3.8-4.426,5.5-8.488,10.956-11.113a10.375,10.375,0,0,1,5.736-.894,14.932,14.932,0,0,0-5.035-.785,13.889,13.889,0,0,0-5.97,1.4,15.171,15.171,0,0,0-4.85,3.755,17.207,17.207,0,0,0-4.1,10.008,4.129,4.129,0,0,0,.6-.212A8.1,8.1,0,0,0,93.681,101.361Z"
         transform="translate(-86.606 -88.081)"
         fill="url(#linear-gradient-3)" />
      <path
         id="Path_686"
         data-name="Path 686"
         d="M99.456,119.878a14.44,14.44,0,0,0,5.577-3.975c1.7-1.692,3.528-3.927,6.573-5,2.957-1.029,1.16-9.472-1.907-9.452a11.479,11.479,0,0,0-3.888.688c-4.281,1.515-7.261,5.726-10.953,9.371a9.706,9.706,0,0,1-3.436,2.241,4.7,4.7,0,0,1-1.165.258A17.775,17.775,0,0,0,91,119.124a9.448,9.448,0,0,0,1.736.824A9.882,9.882,0,0,0,99.456,119.878Z"
         transform="translate(-86.492 -96.974)"
         fill="url(#linear-gradient-4)" />
      <path
         id="Path_687"
         data-name="Path 687"
         d="M106.41,181.678c5.322,5.692,13.54,4.923,18.257,1.814q.584-.4,1.13-.845C117.031,185.757,108.54,182.569,106.41,181.678Z"
         transform="translate(-97.641 -152.354)"
         fill="url(#linear-gradient-5)" />
      <path
         id="Path_688"
         data-name="Path 688"
         d="M121.154,144.928a5.553,5.553,0,0,0-3.7-1.459l-.236,0a5.943,5.943,0,0,0-1.179.146,8.867,8.867,0,0,0-3.438,1.813c-.7.536-1.423,1.141-2.156,1.759a19.59,19.59,0,0,1-5.36,3.413,10.876,10.876,0,0,1-1.663.516,12.429,12.429,0,0,1-6.165-.047,10.6,10.6,0,0,1-1.818-.691c-.128-.06-.25-.131-.375-.2a16.707,16.707,0,0,0,1.726,3.034,25.734,25.734,0,0,0,8.638,2.474,26.289,26.289,0,0,0,9.976-.682,13.641,13.641,0,0,0,4.361-2.044c.627-.466,2.318-1.875,2.634-3.53A4.714,4.714,0,0,0,121.154,144.928Z"
         transform="translate(-89.812 -125.979)"
         fill="url(#linear-gradient-6)" />
      <path
         id="Path_689"
         data-name="Path 689"
         d="M78.736,99.142a20.581,20.581,0,0,1,.942-2.48A17.125,17.125,0,0,1,93.184,87a14.953,14.953,0,0,0-2.76.968,16.242,16.242,0,0,0-5.252,3.94A18.38,18.38,0,0,0,80.7,102.749a2.411,2.411,0,0,1-1.165-.456A2.788,2.788,0,0,1,78.736,99.142ZM83,113.009a18.4,18.4,0,0,1-1.257-2.813,13.53,13.53,0,0,1-3.538-3.942,9.755,9.755,0,0,0,2.057,4.277A13.276,13.276,0,0,0,83,113.009Zm-1.856-4.876a18.888,18.888,0,0,1-.49-4.121c0-.01,0-.019,0-.029a3.463,3.463,0,0,1-1.786-.875,4.015,4.015,0,0,1-.728-.886c0,.01-.041.508-.039.732v.094a4.879,4.879,0,0,0,1.128,3.226A12.807,12.807,0,0,0,81.14,108.133ZM86.01,92.64a17.207,17.207,0,0,0-4.1,10.008,4.128,4.128,0,0,0,.6-.212,8.1,8.1,0,0,0,2.655-2.159c3.8-4.426,5.5-8.488,10.956-11.113a10.375,10.375,0,0,1,5.736-.894,14.933,14.933,0,0,0-5.035-.785,13.889,13.889,0,0,0-5.97,1.4A15.171,15.171,0,0,0,86.01,92.64Zm28.954,12.486A17.957,17.957,0,0,0,109.6,94.557a12.326,12.326,0,0,0-8.294-3.084,11.479,11.479,0,0,0-3.888.688c-4.281,1.515-7.261,5.726-10.953,9.371a9.706,9.706,0,0,1-3.436,2.241,4.7,4.7,0,0,1-1.165.258,17.775,17.775,0,0,0,.738,5.114,9.45,9.45,0,0,0,1.736.824,9.882,9.882,0,0,0,6.724-.07,14.44,14.44,0,0,0,5.577-3.975c1.7-1.692,3.528-3.927,6.573-5a9.989,9.989,0,0,1,9.094,1.369,9.827,9.827,0,0,1,2.659,2.852ZM85.185,116.11c-.3-.332-.573-.678-.841-1.031-.263-.15-.527-.3-.784-.46a15.054,15.054,0,0,1-3.974-3.56l-.025-.035A17.164,17.164,0,0,0,90.056,120.3a17.021,17.021,0,0,0,2.711.6,14.909,14.909,0,0,1-2.334-.86A16.221,16.221,0,0,1,85.185,116.11Zm1.681.211c5.322,5.692,13.54,4.923,18.257,1.814q.584-.4,1.13-.845C97.488,120.4,89,117.212,86.867,116.321Zm22.574-10.375a5.553,5.553,0,0,0-3.7-1.459l-.236,0a5.943,5.943,0,0,0-1.179.146,8.867,8.867,0,0,0-3.438,1.813c-.7.536-1.423,1.141-2.156,1.759a19.59,19.59,0,0,1-5.36,3.413,10.875,10.875,0,0,1-1.663.516,12.429,12.429,0,0,1-6.165-.047,10.624,10.624,0,0,1-1.818-.691c-.128-.06-.25-.131-.375-.2a16.706,16.706,0,0,0,1.726,3.034,25.734,25.734,0,0,0,8.638,2.474,26.289,26.289,0,0,0,9.976-.682,13.644,13.644,0,0,0,4.361-2.044c.627-.466,2.318-1.875,2.634-3.53A4.714,4.714,0,0,0,109.44,105.946Z"
         transform="translate(-78.098 -86.997)"
         fill="url(#radial-gradient)" />
    </g>
    <path
       id="Path_690"
       data-name="Path 690"
       d="M226.508,111.053c0,.43.32.726.652,1.046l.406.394a2.649,2.649,0,0,1,.96,2.067c0,2.031-.972,2.794-2.954,2.794a6.13,6.13,0,0,1-2.3-.505l.32-1.8a7.419,7.419,0,0,0,1.784.492.718.718,0,0,0,.763-.726c0-.492-.259-.689-.566-.984l-.43-.418a2.838,2.838,0,0,1-1.009-2.129c0-1.883,1.205-2.794,3.076-2.794a3.671,3.671,0,0,1,1.944.468l-.308,1.748a3.75,3.75,0,0,0-1.526-.443A.742.742,0,0,0,226.508,111.053ZM216.2,114.426c0,2.277-1.268,2.807-3.471,2.807h-2.671l1.514-8.616h2.671c1.785,0,2.413.714,2.413,2.03a2.073,2.073,0,0,1-1.847,2.154A1.533,1.533,0,0,1,216.2,114.426Zm-2.326-.012c0-.542-.135-.813-.751-.813h-.086l-.37,2.117h.172C213.565,115.719,213.874,115.115,213.874,114.414Zm.492-3.682c0-.344-.05-.6-.468-.6h-.247l-.356,1.993h.172C214.144,112.124,214.366,111.361,214.366,110.733Zm45.185-2.116.529,8.616h-2.413l.074-1.427h-1.526l-.419,1.427H253.31l3.41-8.616Zm-1.526.948s-.616,2.154-.924,3.25l-.369,1.292h1.1l.061-1.281C257.926,112.013,258.025,109.564,258.025,109.564Zm10.25,5.834,1.195-6.782h-2.339l-1.515,8.616h3.816l.628-1.834Zm-45.885-6.782.529,8.616h-2.413l.074-1.427h-1.526l-.418,1.427h-2.487l3.41-8.616Zm-1.526.948s-.616,2.154-.924,3.25l-.369,1.292h1.1l.061-1.281C220.764,112.013,220.863,109.564,220.863,109.564Zm43.745-.948h-2.339l-1.514,8.616h3.816l.628-1.834h-1.785Zm-28.525,8.616h4.555l.32-1.834h-2.215l.307-1.76h1.908l.308-1.7h-1.908l.259-1.489h2.031l.567-1.834H237.6Zm.716-8.616h-2.6l-1.908,4.062.616,4.677,2.5-.123-.873-4.456Zm11.567,0H242.7l-.32,1.846h1.661l-1.194,6.77h2.339l1.194-6.77h1.353Zm5.119,5.81c0,2.277-1.267,2.807-3.471,2.807h-2.671l1.514-8.616h2.67c1.785,0,2.413.714,2.413,2.03a2.072,2.072,0,0,1-1.846,2.154A1.534,1.534,0,0,1,253.485,114.426Zm-2.327-.012c0-.542-.135-.813-.75-.813h-.087l-.369,2.117h.173C250.851,115.719,251.158,115.115,251.158,114.414Zm.492-3.682c0-.344-.049-.6-.468-.6h-.246l-.357,1.993h.173C251.429,112.124,251.65,111.361,251.65,110.733Zm-21.005-2.116-1.514,8.616h2.339l1.514-8.616Z"
       transform="translate(745.204 2202.831)"
       fill="#fff"
       style="fill:#000000" />
    <g
       id="Group_1067"
       data-name="Group 1067"
       transform="translate(955.261 2322.349)">
      <path
         id="Path_691"
         data-name="Path 691"
         d="M213.739,144.222l-3.682,9.3h2.685l.452-1.542h1.648l-.08,1.542h2.6l-.571-9.3ZM215,148.768l-.066,1.382h-1.183l.4-1.4c.332-1.183,1-3.509,1-3.509S215.042,147.891,215,148.768Zm10.862-4.546-1.143,6.513c-.4,2.273-1.422,2.924-3.482,2.924s-3.083-.8-2.685-3.057l1.117-6.38h2.525l-1.209,6.9c-.066.385-.026.651.452.651.332,0,.6-.146.691-.651l1.21-6.9Zm4.123-.133a3.967,3.967,0,0,1,2.1.505l-.332,1.887a4.058,4.058,0,0,0-1.649-.479.8.8,0,0,0-.877.851c0,.465.346.784.7,1.13l.439.425a2.864,2.864,0,0,1,1.036,2.233c0,2.192-1.05,3.017-3.19,3.017a6.626,6.626,0,0,1-2.485-.545l.346-1.941a8.011,8.011,0,0,0,1.927.532.775.775,0,0,0,.824-.784c0-.532-.279-.745-.611-1.063l-.466-.452a3.063,3.063,0,0,1-1.089-2.3C226.664,145.073,227.966,144.089,229.986,144.089Zm8.628,2.127h-1.462l-1.289,7.31h-2.524l1.289-7.31h-1.795l.346-1.994h6.114Zm7.206.318c0-1.74-.89-2.313-2.579-2.313h-3.017l-1.635,9.3h2.525l.638-3.589.346-.039a4.212,4.212,0,0,1,.147,1.78l-.173,1.848H244.7l.094-1.728a3.062,3.062,0,0,0-.665-2.512A2.684,2.684,0,0,0,245.82,146.534Zm-2.977,1.5a1.4,1.4,0,0,1-.824.359l.426-2.432h.266c.439,0,.531.279.531.7A2.423,2.423,0,0,1,242.843,148.036Zm6.409-3.814-3.681,9.3h2.685l.451-1.542h1.648l-.08,1.542h2.605l-.571-9.3Zm1.263,4.546-.067,1.382h-1.182l.4-1.4c.333-1.183,1-3.509,1-3.509S250.555,147.891,250.515,148.768Zm6.17,2.778h1.927l-.678,1.98h-4.12l1.635-9.3h2.525Zm6.767-7.324-1.635,9.3h-2.552l1.635-9.3Zm6.607,9.3-.571-9.3h-3.058l-3.681,9.3h2.685l.451-1.542h1.648l-.08,1.542Zm-3.615-3.376.4-1.4c.333-1.183,1-3.509,1-3.509s-.106,2.645-.147,3.522l-.066,1.382Z"
         transform="translate(-210.057 -144.089)"
         fill="#f47920" />
    </g>
  </g>
</svg>
