<?xml version="1.0" encoding="UTF-8" standalone="no"?>
<svg
   xmlns:dc="http://purl.org/dc/elements/1.1/"
   xmlns:cc="http://creativecommons.org/ns#"
   xmlns:rdf="http://www.w3.org/1999/02/22-rdf-syntax-ns#"
   xmlns:svg="http://www.w3.org/2000/svg"
   xmlns="http://www.w3.org/2000/svg"
   xmlns:sodipodi="http://sodipodi.sourceforge.net/DTD/sodipodi-0.dtd"
   xmlns:inkscape="http://www.inkscape.org/namespaces/inkscape"
   width="53.414"
   height="18.875"
   viewBox="0 0 53.414 18.875"
   version="1.1"
   id="svg11"
   sodipodi:docname="icon_poli.svg"
   inkscape:version="0.92.1 r15371">
  <metadata
     id="metadata17">
    <rdf:RDF>
      <cc:Work
         rdf:about="">
        <dc:format>image/svg+xml</dc:format>
        <dc:type
           rdf:resource="http://purl.org/dc/dcmitype/StillImage" />
      </cc:Work>
    </rdf:RDF>
  </metadata>
  <defs
     id="defs15" />
  <sodipodi:namedview
     pagecolor="#ffffff"
     bordercolor="#666666"
     borderopacity="1"
     objecttolerance="10"
     gridtolerance="10"
     guidetolerance="10"
     inkscape:pageopacity="0"
     inkscape:pageshadow="2"
     inkscape:window-width="640"
     inkscape:window-height="480"
     id="namedview13"
     showgrid="false"
     inkscape:zoom="5.316958"
     inkscape:cx="22.193141"
     inkscape:cy="9.4375"
     inkscape:current-layer="Group_1087" />
  <g
     id="Group_2185"
     data-name="Group 2185"
     transform="translate(-804.515 -2414.354)">
    <g
       id="Group_1087"
       data-name="Group 1087"
       transform="translate(804.515 2414.354)">
      <path
         id="Path_723"
         data-name="Path 723"
         d="M21.7,253.5V237.256h4.211a29.391,29.391,0,0,1,3.739.1,7.167,7.167,0,0,1,2.208.81A3.891,3.891,0,0,1,33.4,240a7.193,7.193,0,0,1,.525,2.9,5.737,5.737,0,0,1-1.38,4.264c-.979.961-3.143,1.371-5.03,1.371H26.436v4.959H21.7Zm4.709-7.941a2.132,2.132,0,0,0,.223.018c1.469.053,1.852-.312,2.083-.588a4.286,4.286,0,0,0,.356-2.279,2.47,2.47,0,0,0-.507-1.923,3.217,3.217,0,0,0-2.154-.507l.009.267v5.012Z"
         transform="translate(-21.7 -235.333)"
         fill="#fff"
         style="fill:#000000" />
      <path
         id="Path_724"
         data-name="Path 724"
         d="M399.356,252.474H388.7V236.2h5.252v11.4h5.4Z"
         transform="translate(-356.028 -234.375)"
         fill="#fff"
         style="fill:#000000" />
      <rect
         id="Rectangle_800"
         data-name="Rectangle 800"
         width="5.039"
         height="10.683"
         transform="translate(44.236 7.442)"
         fill="#fff"
         style="fill:#000000" />
      <rect
         id="Rectangle_801"
         data-name="Rectangle 801"
         width="5.146"
         height="4.416"
         transform="translate(44.165 1.896)"
         fill="#fff"
         style="fill:#000000" />
      <path
         id="Path_725"
         data-name="Path 725"
         d="M585.487,401.5H584v.312h.552V403h.383v-1.184h.552Z"
         transform="translate(-533.942 -384.96)"
         fill="#fff"
         style="fill:#000000" />
      <path
         id="Path_726"
         data-name="Path 726"
         d="M178.848,232.677a6.161,6.161,0,0,0,1.923-1.282,9.251,9.251,0,0,0,3.2-7.06,7.605,7.605,0,0,0-4.166-6.579,4.291,4.291,0,0,1,1.727,1.006,7.155,7.155,0,0,1,2.644,5.653,9.585,9.585,0,0,1-3.605,7.46,4.845,4.845,0,0,0,1.442-1.326,9.5,9.5,0,0,0,2.324-6.1c0-3.632-2.056-5.724-4.451-7.1a5.84,5.84,0,0,1,2.083,1.2,7.5,7.5,0,0,1,2.564,6.258,9.934,9.934,0,0,1-3.125,6.695,11.2,11.2,0,0,1-6.739,3.045,6.32,6.32,0,0,1-1.006,0c-4.184-.347-7.22-3.027-7.54-7.14a7.7,7.7,0,0,1,0-1.282,10.632,10.632,0,0,1,9.615-9.508c.071-.32.16-.694.2-.926.97,1.033,2.145,2.154,3.365,3.365-1.469.748-2.893,1.54-4.327,2.324.036-.294.1-.632.116-.846a5.946,5.946,0,0,0-4.968,4.727,4.419,4.419,0,0,0,4.451,5.413,6.092,6.092,0,0,0,5.929-4.887,4.607,4.607,0,0,0-1.763-4.567,4.408,4.408,0,0,1,2.163,4.051,6.46,6.46,0,0,1-6.214,5.689A5.457,5.457,0,0,1,170.489,229a5.152,5.152,0,0,0,4.727,2.083,6.205,6.205,0,0,0,3.846-1.807,6.564,6.564,0,0,0,1.967-3.65,6,6,0,0,0,0-1.647c-.24-1.6-1.22-2.35-2.11-3.374,1.264,1.015,2.6,2.359,2.51,4.54-.134,3.187-3.178,6-6.374,6.214a5.494,5.494,0,0,1-4.487-1.6,5.4,5.4,0,0,0,5.092,1.683,7.054,7.054,0,0,0,5.893-5.973c.285-2.751-1.1-4.033-2.439-5.386,1.415,1.077,2.626,2.261,2.715,4.46a6.912,6.912,0,0,1-2.048,4.967c-1.905,1.905-5.617,3.16-8.5,1.407,2.457,1.878,6.267.8,8.3-1.042a6.755,6.755,0,0,0,2.368-5.769c-.142-2.137-1.353-3.232-2.724-4.371a5.355,5.355,0,0,1,2.964,4.246,7.024,7.024,0,0,1-2.528,6.089,7.944,7.944,0,0,1-7.38,1.843,7.928,7.928,0,0,0,10.024-6.249,6.227,6.227,0,0,0-2.528-6.018c-.151-.125-.231-.223-.436-.4a6.062,6.062,0,0,1,3.125,6.855,8.325,8.325,0,0,1-9.819,6.294,5.7,5.7,0,0,0,2.35.2,8.365,8.365,0,0,0,5.528-2.528,7.859,7.859,0,0,0,2.226-6.169c-.187-2.484-1.576-3.677-3.276-4.994a4.751,4.751,0,0,1,1.843,1.318,6.18,6.18,0,0,1,1.665,3.766,8.2,8.2,0,0,1-2.528,6.419,8.49,8.49,0,0,1-6.214,2.608,8.623,8.623,0,0,0,8.181-5.208,8.018,8.018,0,0,0,.365-5.653,7.848,7.848,0,0,0-3.169-3.668,6.665,6.665,0,0,1,3.73,6.953,8.3,8.3,0,0,1-1.175,3.41,10.2,10.2,0,0,1-5.484,4.291,8.6,8.6,0,0,0,4.407-2.644,8.737,8.737,0,0,0,2.448-6.33c-.08-2.982-1.923-4.7-3.81-6.054a.4.4,0,0,1,.071.018,6.737,6.737,0,0,1,3.935,5.475c.561,4.318-2.27,7.451-4.887,9.08"
         transform="translate(-153.245 -215.7)"
         fill="#2f4398"
         fill-rule="evenodd" />
      <path
         id="Path_727"
         data-name="Path 727"
         d="M606.842,403.022V402.3l-.214.365-.24-.009-.214-.356v.721H605.8V401.5h.365l.338.668.347-.668h.365v1.522Z"
         transform="translate(-553.801 -384.96)"
         fill="#fff"
         style="fill:#000000" />
    </g>
  </g>
</svg>
