<?xml version="1.0" encoding="UTF-8" standalone="no"?>
<svg
   xmlns:dc="http://purl.org/dc/elements/1.1/"
   xmlns:cc="http://creativecommons.org/ns#"
   xmlns:rdf="http://www.w3.org/1999/02/22-rdf-syntax-ns#"
   xmlns:svg="http://www.w3.org/2000/svg"
   xmlns="http://www.w3.org/2000/svg"
   xmlns:sodipodi="http://sodipodi.sourceforge.net/DTD/sodipodi-0.dtd"
   xmlns:inkscape="http://www.inkscape.org/namespaces/inkscape"
   width="37.877"
   height="29.433"
   viewBox="0 0 37.877 29.433"
   version="1.1"
   id="svg21"
   sodipodi:docname="icon_mastercard.svg"
   inkscape:version="0.92.1 r15371">
  <metadata
     id="metadata27">
    <rdf:RDF>
      <cc:Work
         rdf:about="">
        <dc:format>image/svg+xml</dc:format>
        <dc:type
           rdf:resource="http://purl.org/dc/dcmitype/StillImage" />
      </cc:Work>
    </rdf:RDF>
  </metadata>
  <defs
     id="defs25" />
  <sodipodi:namedview
     pagecolor="#ffffff"
     bordercolor="#666666"
     borderopacity="1"
     objecttolerance="10"
     gridtolerance="10"
     guidetolerance="10"
     inkscape:pageopacity="0"
     inkscape:pageshadow="2"
     inkscape:window-width="640"
     inkscape:window-height="480"
     id="namedview23"
     showgrid="false"
     inkscape:zoom="21.207417"
     inkscape:cx="32.947314"
     inkscape:cy="15.038144"
     inkscape:current-layer="Group_1075" />
  <g
     id="Group_2184"
     data-name="Group 2184"
     transform="translate(-747.791 -2409.3)">
    <g
       id="Group_1073"
       data-name="Group 1073"
       transform="translate(749.702 2434.197)">
      <path
         id="Path_709"
         data-name="Path 709"
         d="M182.2,648.343a1.147,1.147,0,0,0-.387-.254,1.3,1.3,0,0,0-.49-.091,1.847,1.847,0,0,0-.293.024,1.284,1.284,0,0,0-.3.086,1.127,1.127,0,0,0-.277.17,1.02,1.02,0,0,0-.228.273,1.114,1.114,0,0,0-.424-.406,1.249,1.249,0,0,0-.612-.147,1.426,1.426,0,0,0-.239.021,1.093,1.093,0,0,0-.246.073.973.973,0,0,0-.435.365v-.378h-.651v3.1h.657v-1.717a.926.926,0,0,1,.063-.351.758.758,0,0,1,.168-.257.7.7,0,0,1,.246-.157.839.839,0,0,1,.3-.054.647.647,0,0,1,.515.21.889.889,0,0,1,.183.6v1.723h.657v-1.717a.922.922,0,0,1,.063-.351.755.755,0,0,1,.167-.257.7.7,0,0,1,.246-.157.84.84,0,0,1,.3-.054.647.647,0,0,1,.515.21.889.889,0,0,1,.183.6v1.723h.657v-1.947a1.348,1.348,0,0,0-.089-.5A1.135,1.135,0,0,0,182.2,648.343Z"
         transform="translate(-177.623 -646.821)"
         fill="#fff"
         style="fill:#000000" />
      <path
         id="Path_710"
         data-name="Path 710"
         d="M217.021,648.455a1.211,1.211,0,0,0-.4-.331,1.225,1.225,0,0,0-.572-.125,1.51,1.51,0,0,0-1.1.459,1.567,1.567,0,0,0-.33.516,1.851,1.851,0,0,0,0,1.31,1.568,1.568,0,0,0,.33.516,1.512,1.512,0,0,0,1.1.459,1.239,1.239,0,0,0,.572-.123,1.194,1.194,0,0,0,.4-.33v.372h.676v-3.1h-.676ZM217,650.023a.941.941,0,0,1-.191.314.888.888,0,0,1-.294.209,1.006,1.006,0,0,1-.775,0,.874.874,0,0,1-.293-.213.945.945,0,0,1-.184-.315,1.176,1.176,0,0,1,0-.769.944.944,0,0,1,.184-.315.873.873,0,0,1,.293-.214,1.005,1.005,0,0,1,.775,0,.885.885,0,0,1,.294.209.94.94,0,0,1,.191.314,1.178,1.178,0,0,1,0,.789Z"
         transform="translate(-208.977 -646.821)"
         fill="#fff"
         style="fill:#000000" />
      <path
         id="Path_711"
         data-name="Path 711"
         d="M242.666,649.643a1.671,1.671,0,0,0-.792-.3l-.32-.048q-.107-.016-.2-.037a.659.659,0,0,1-.162-.057.309.309,0,0,1-.108-.091.222.222,0,0,1-.04-.136.308.308,0,0,1,.154-.267.777.777,0,0,1,.432-.1,1.584,1.584,0,0,1,.286.026,2.345,2.345,0,0,1,.267.065,1.909,1.909,0,0,1,.23.086,1.851,1.851,0,0,1,.175.089l.291-.527a1.989,1.989,0,0,0-.566-.241,2.68,2.68,0,0,0-.689-.086,1.892,1.892,0,0,0-.534.069,1.225,1.225,0,0,0-.4.2.859.859,0,0,0-.255.312.94.94,0,0,0-.089.414.763.763,0,0,0,.267.606,1.486,1.486,0,0,0,.784.3l.323.042a1.017,1.017,0,0,1,.407.124.255.255,0,0,1,.129.218.309.309,0,0,1-.178.276,1.084,1.084,0,0,1-.527.1,2.03,2.03,0,0,1-.341-.026,1.716,1.716,0,0,1-.275-.07,1.336,1.336,0,0,1-.223-.1,1.622,1.622,0,0,1-.183-.121l-.314.508a1.66,1.66,0,0,0,.352.2,2.422,2.422,0,0,0,.362.121,2.293,2.293,0,0,0,.336.058q.158.015.278.015a2.2,2.2,0,0,0,.6-.074,1.342,1.342,0,0,0,.443-.209.924.924,0,0,0,.275-.32.883.883,0,0,0,.1-.409A.74.74,0,0,0,242.666,649.643Z"
         transform="translate(-230.839 -646.839)"
         fill="#fff"
         style="fill:#000000" />
      <path
         id="Path_712"
         data-name="Path 712"
         d="M284.106,648.45a1.325,1.325,0,0,0-.462-.333,1.469,1.469,0,0,0-.593-.118,1.613,1.613,0,0,0-.626.118,1.408,1.408,0,0,0-.487.333,1.515,1.515,0,0,0-.317.516,1.869,1.869,0,0,0-.113.663,1.842,1.842,0,0,0,.116.669,1.485,1.485,0,0,0,.327.514,1.448,1.448,0,0,0,.5.33,1.707,1.707,0,0,0,.64.117,2.29,2.29,0,0,0,.671-.1,1.687,1.687,0,0,0,.6-.339l-.336-.482a1.51,1.51,0,0,1-.428.241,1.351,1.351,0,0,1-.467.086,1.1,1.1,0,0,1-.317-.045.829.829,0,0,1-.275-.141.847.847,0,0,1-.21-.244,1.006,1.006,0,0,1-.12-.359H284.5c0-.039.008-.08.01-.123s0-.086,0-.129a1.928,1.928,0,0,0-.108-.661A1.558,1.558,0,0,0,284.106,648.45Zm-1.89.914a1.16,1.16,0,0,1,.091-.309.831.831,0,0,1,.167-.243.7.7,0,0,1,.243-.157.878.878,0,0,1,.322-.055.719.719,0,0,1,.527.2.967.967,0,0,1,.259.563Z"
         transform="translate(-265.951 -646.821)"
         fill="#fff"
         style="fill:#000000" />
      <path
         id="Path_713"
         data-name="Path 713"
         d="M344.5,648.455a1.209,1.209,0,0,0-.4-.331,1.226,1.226,0,0,0-.572-.125,1.51,1.51,0,0,0-1.1.459,1.567,1.567,0,0,0-.33.516,1.852,1.852,0,0,0,0,1.31,1.568,1.568,0,0,0,.33.516,1.512,1.512,0,0,0,1.1.459,1.239,1.239,0,0,0,.572-.123,1.192,1.192,0,0,0,.4-.33v.372h.676v-3.1H344.5Zm-.026,1.568a.942.942,0,0,1-.191.314.888.888,0,0,1-.294.209,1.006,1.006,0,0,1-.775,0,.875.875,0,0,1-.293-.213.946.946,0,0,1-.184-.315,1.176,1.176,0,0,1,0-.769.944.944,0,0,1,.184-.315.873.873,0,0,1,.293-.214,1.005,1.005,0,0,1,.775,0,.885.885,0,0,1,.294.209.941.941,0,0,1,.191.314,1.181,1.181,0,0,1,0,.789Z"
         transform="translate(-317.363 -646.821)"
         fill="#fff"
         style="fill:#000000" />
      <path
         id="Path_714"
         data-name="Path 714"
         d="M263.973,645.7a.911.911,0,0,1-.322.061.557.557,0,0,1-.192-.032.4.4,0,0,1-.155-.1.492.492,0,0,1-.105-.179.8.8,0,0,1-.039-.265v-1.349h1.086v-.614H263.16v-.938h-.679v.938h-.618v.614h.618v1.361a1.242,1.242,0,0,0,.293.91,1.108,1.108,0,0,0,.82.293,1.46,1.46,0,0,0,.529-.091,2.211,2.211,0,0,0,.289-.136l-.231-.566A1.758,1.758,0,0,1,263.973,645.7Z"
         transform="translate(-249.248 -641.956)"
         fill="#fff"
         style="fill:#000000" />
      <path
         id="Path_715"
         data-name="Path 715"
         d="M308.112,648a1.24,1.24,0,0,0-.514.1,1.094,1.094,0,0,0-.385.384v-.406H306.6v3.1h.62v-1.7a1.052,1.052,0,0,1,.055-.353.76.76,0,0,1,.152-.262.629.629,0,0,1,.233-.162.784.784,0,0,1,.3-.055,1.321,1.321,0,0,1,.265.029,1.089,1.089,0,0,1,.136.036l.2-.647a1.237,1.237,0,0,0-.166-.041A1.689,1.689,0,0,0,308.112,648Z"
         transform="translate(-287.285 -646.821)"
         fill="#fff"
         style="fill:#000000" />
      <path
         id="Path_716"
         data-name="Path 716"
         d="M370.85,648a1.24,1.24,0,0,0-.514.1,1.093,1.093,0,0,0-.385.384v-.406h-.613v3.1h.62v-1.7a1.051,1.051,0,0,1,.055-.353.762.762,0,0,1,.152-.262.631.631,0,0,1,.233-.162.784.784,0,0,1,.3-.055,1.318,1.318,0,0,1,.265.029,1.094,1.094,0,0,1,.136.036l.2-.647a1.234,1.234,0,0,0-.166-.041A1.686,1.686,0,0,0,370.85,648Z"
         transform="translate(-340.627 -646.821)"
         fill="#fff"
         style="fill:#000000" />
      <path
         id="Path_717"
         data-name="Path 717"
         d="M386.2,640.131v1.634a1.213,1.213,0,0,0-.4-.331,1.227,1.227,0,0,0-.573-.125,1.51,1.51,0,0,0-1.1.459,1.566,1.566,0,0,0-.33.516,1.852,1.852,0,0,0,0,1.31,1.569,1.569,0,0,0,.33.516,1.512,1.512,0,0,0,1.1.459,1.241,1.241,0,0,0,.573-.123,1.2,1.2,0,0,0,.4-.33v.372h.676v-4.357Zm-.026,3.2a.942.942,0,0,1-.191.314.888.888,0,0,1-.294.209,1.005,1.005,0,0,1-.774,0,.875.875,0,0,1-.293-.213.947.947,0,0,1-.184-.315,1.177,1.177,0,0,1,0-.77.945.945,0,0,1,.184-.315.873.873,0,0,1,.293-.214,1,1,0,0,1,.774,0,.886.886,0,0,1,.294.209.941.941,0,0,1,.191.314,1.179,1.179,0,0,1,0,.789Z"
         transform="translate(-352.817 -640.131)"
         fill="#fff"
         style="fill:#000000" />
      <path
         id="Path_718"
         data-name="Path 718"
         d="M321.974,648.913a.909.909,0,0,1,.307-.2,1.006,1.006,0,0,1,.385-.073h0a1.205,1.205,0,0,1,.423.073,1.017,1.017,0,0,1,.328.2l.325-.541a1.651,1.651,0,0,0-.412-.24,1.834,1.834,0,0,0-1.329,0,1.568,1.568,0,0,0-.875.858,1.72,1.72,0,0,0,0,1.294,1.584,1.584,0,0,0,.348.516,1.6,1.6,0,0,0,.527.343,1.836,1.836,0,0,0,1.329,0,1.653,1.653,0,0,0,.412-.24l-.325-.541a1.018,1.018,0,0,1-.328.2,1.2,1.2,0,0,1-.423.073h0a1,1,0,0,1-.385-.073.907.907,0,0,1-.307-.2.948.948,0,0,1-.2-.314,1.126,1.126,0,0,1,0-.805A.951.951,0,0,1,321.974,648.913Z"
         transform="translate(-299.529 -646.821)"
         fill="#fff"
         style="fill:#000000" />
    </g>
    <g
       id="Group_1074"
       data-name="Group 1074"
       transform="translate(784.854 2438.1)"
       style="fill:#000000">
      <path
         id="Path_719"
         data-name="Path 719"
         d="M412.685,666.2a.321.321,0,0,1,.127.025.33.33,0,0,1,.1.068.321.321,0,0,1,.069.1.308.308,0,0,1,0,.245.324.324,0,0,1-.069.1.329.329,0,0,1-.1.068.321.321,0,0,1-.127.025.33.33,0,0,1-.129-.025.324.324,0,0,1-.1-.068.318.318,0,0,1-.069-.1.315.315,0,0,1,0-.245.315.315,0,0,1,.069-.1.326.326,0,0,1,.1-.068A.33.33,0,0,1,412.685,666.2Zm0,.544a.22.22,0,0,0,.089-.018.226.226,0,0,0,.12-.121.234.234,0,0,0,0-.178.224.224,0,0,0-.048-.073.231.231,0,0,0-.072-.048.221.221,0,0,0-.089-.018.227.227,0,0,0-.09.018.236.236,0,0,0-.073.048.222.222,0,0,0-.049.073.236.236,0,0,0,0,.178.224.224,0,0,0,.049.072.23.23,0,0,0,.073.049A.226.226,0,0,0,412.685,666.74Zm.018-.369a.131.131,0,0,1,.088.026.086.086,0,0,1,.03.069.077.077,0,0,1-.022.056.109.109,0,0,1-.062.029l.087.1h-.094l-.078-.1h-.009v.1h-.079v-.28Zm-.06.068v.051h.059a.057.057,0,0,0,.028-.006.021.021,0,0,0,.01-.02.021.021,0,0,0-.01-.02.052.052,0,0,0-.028-.006Z"
         transform="translate(-412.359 -666.195)"
         fill="#fff"
         style="fill:#000000" />
    </g>
    <g
       id="Group_1075"
       data-name="Group 1075"
       transform="translate(747.791 2409.3)">
      <path
         id="Path_720"
         data-name="Path 720"
         d="M179.346,485.55a11.652,11.652,0,0,1,4.433-9.154,11.675,11.675,0,1,0,0,18.309A11.651,11.651,0,0,1,179.346,485.55Z"
         transform="translate(-164.862 -473.875)"
         fill="#d90010" />
      <ellipse
         id="Ellipse_34"
         data-name="Ellipse 34"
         cx="4.433"
         cy="9.154"
         rx="4.433"
         ry="9.154"
         transform="translate(14.484 2.521)"
         fill="#e54800" />
      <path
         id="Path_721"
         data-name="Path 721"
         d="M411.438,591.536v-.342H411.3V591.1h.378v.094h-.138v.342Zm.732,0v-.3l-.1.261h-.108l-.1-.26v.3h-.1V591.1h.146l.108.279.108-.279h.146v.436Z"
         transform="translate(-374.395 -573.545)"
         fill="#f78b00" />
      <path
         id="Path_722"
         data-name="Path 722"
         d="M298.427,473.875a11.623,11.623,0,0,0-7.242,2.521,11.668,11.668,0,0,1,0,18.309,11.674,11.674,0,1,0,7.242-20.83Z"
         transform="translate(-272.268 -473.875)"
         fill="#f78b00" />
    </g>
  </g>
</svg>
