<svg xmlns="http://www.w3.org/2000/svg" width="1972.48" height="1971.93" viewBox="0 0 1972.48 1971.93"><path d="M1780.5,1000.69l177.19-173.35c24.4-23.11,33.38-57.78,25.68-89.88-9-32.1-34.67-57.78-66.77-65.48l-241.39-61.64,68-238.82c9-32.1,0-66.77-24.4-89.88-23.11-24.4-57.78-33.39-89.88-24.4l-238.83,68.05L1328.52,83.9A89.33,89.33,0,0,0,1263,18.41c-33.39-9-66.77,0-89.88,24.4L999.81,221.29,826.47,42.81c-23.11-24.4-57.78-33.39-89.88-24.4A89.36,89.36,0,0,0,671.1,83.9L609.47,325.29,370.64,257.24c-32.1-9-66.77,0-89.88,24.4-24.4,23.11-33.38,57.78-24.4,89.88l68.06,238.82L83,672c-32.1,7.7-57.78,33.38-66.77,65.48-7.7,32.1,1.29,66.77,25.68,89.88l177.2,173.35L41.93,1174c-24.39,23.11-33.38,57.78-25.68,89.88,9,32.1,34.67,57.78,66.77,65.49L324.42,1391l-68.06,238.83c-9,32.09,0,66.76,24.4,89.88,23.11,24.39,57.78,33.38,89.88,24.39l238.83-68.05,61.63,241.4c7.71,32.1,32.1,57.78,65.49,66.76,32.1,7.71,66.77-1.28,89.88-25.68l173.34-177.19,173.35,177.19c16.69,18,41.08,28.25,65.48,28.25,7.7,0,16.69-1.28,24.4-2.57,32.1-9,57.78-34.66,65.48-66.76l61.63-241.4L1629,1744.13c32.1,9,66.77,0,89.88-24.39a90.11,90.11,0,0,0,24.4-89.88l-68-238.83,241.39-61.63c32.1-7.71,57.78-33.39,66.77-65.49,7.7-32.1-1.28-66.77-25.68-89.88ZM939.84,854.62Q965.33,881,1021.76,905t106.5,49.76q50.06,25.82,86.47,58.56a239.9,239.9,0,0,1,57,76.46q20.63,43.7,20.63,105,0,103.77-65.84,169.3t-179.32,76.46v122H950.76V1439.91q-132.3-14-203-90.73t-70.69-202.37h204.5q0,69.18,30.64,105.28t87.08,36.11q41.27,0,64.94-24.58T1087.9,1196q0-47.93-23.66-75.25t-83.14-51.58q-59.48-24.26-109.84-49.15t-86.77-57.65a226.26,226.26,0,0,1-55.83-75.85Q709.24,843.4,709.24,782.1q0-102.54,69.18-169t184.47-77.37v-128h96.49V538.15q111,16.4,174.47,91.33t63.41,190.24H1092.15q0-63.11-24.27-97.09t-69.18-34q-40.05,0-62.2,25.18t-22.15,69.48Q914.35,828.24,939.84,854.62Z" transform="translate(-13.57 -15)"/></svg>