<svg xmlns="http://www.w3.org/2000/svg" width="1190.17" height="726.35" viewBox="0 0 1190.17 726.35"><path d="M1118.1,579.28h-30.3c-6.47,11.9-30.73,59.51-76.52,71.41H994.83c30-59.51,47-128.47,47-199.81,0-244.39-198.12-443.23-442.51-443.23s-442.5,199.19-442.5,443.59a444.67,444.67,0,0,0,47,199.45H187.3c-45.77-11.9-70-59.51-76.52-71.41H80.51c-42.13,0-76.29,35.23-76.29,77.37S38.38,734,80.51,734H545.75V683.37c-59.51-1.51-107.65-16-139-32l25.45-89.07c34.68,17.5,83.75,33.49,137.41,33.49,47.09,0,80.27-17.53,80.27-47.2,0-29-27.14-47.22-88.28-66.24-88.36-27.41-152-65.49-152-139.33,0-67.75,41-120.29,136.19-135.51V138.92h71.41V202.2c71.41,1.52,100.65,12.94,128.73,25.13l-20.67,86c-20.64-9.14-57.41-26.63-116.87-26.63-53.69,0-70,22.06-70,43.39,0,24.36,29.4,41.12,99.58,64.73C737,426.82,770,468.68,770,538c0,67.76-57.65,124.86-152.87,140.1V734H1118.1c42.14,0,76.29-35.22,76.29-77.36s-34.15-77.36-76.29-77.36Z" transform="translate(-4.22 -7.65)"/></svg>