<svg xmlns="http://www.w3.org/2000/svg" width="1980.9" height="1733.29" viewBox="0 0 1980.9 1733.29"><path d="M1992,1040.55a40.75,40.75,0,0,1-41.27,41.27h-123.8v536.49a123.85,123.85,0,0,1-123.81,123.81H300a123.84,123.84,0,0,1-123.8-123.81V1081.82H52.37a40.75,40.75,0,0,1-41.27-41.27V627.86a40.75,40.75,0,0,1,41.27-41.27H619.81a288.88,288.88,0,0,1,0-577.76c86.41,0,166.37,36.11,216.67,99.31l165.07,212.79,165.08-212.79c50.29-63.2,130.25-99.31,216.66-99.31a288.88,288.88,0,1,1,0,577.76h567.44A40.75,40.75,0,0,1,1992,627.86Zm-1120.7-619L708.8,213.89c-14.19-16.77-45.14-40-89-40a123.81,123.81,0,0,0,0,247.61Zm336.59,1016.24V586.59H795.21V1510c0,45.14,37.4,67.06,82.53,67.06h247.62c45.13,0,82.53-21.92,82.53-67.06Zm175.4-1263.85c-43.85,0-74.8,23.21-89,40L1133.09,421.52h250.2a123.81,123.81,0,0,0,0-247.61Z" transform="translate(-11.1 -8.83)"/></svg>