<svg width="233" height="170" viewBox="0 0 233 170" fill="none" xmlns="http://www.w3.org/2000/svg">
<path d="M231.162 26.7738C230.4 23.6575 229.314 20.6276 227.923 17.7325C224.445 12.0489 219.312 7.54119 213.198 4.80248C206.122 1.65499 198.422 0.126479 190.668 0.330459H137.756L124.798 66.4387H60.4989L66.2416 37.2733H111.006L118.025 0.330459H33.4538L20.4957 66.4387L13.3296 103.09L0.371582 169.198H84.8935L91.9124 132.304H47.7372L53.4799 103.139H117.779L104.772 169.247H160.089C170.798 169.51 181.41 167.191 191.012 162.49C199.382 158.342 206.52 152.111 211.725 144.407C213.511 140.81 214.941 137.049 215.996 133.179C217.049 129.13 217.577 124.965 217.566 120.784C217.558 117.323 217.113 113.878 216.241 110.527C215.432 107.27 214.16 104.144 212.462 101.243C210.511 98.0148 208.002 95.152 205.05 92.7848C201.989 90.3529 198.468 88.5515 194.693 87.4864V81.4589C201.359 81.0613 207.813 78.9867 213.443 75.4313C218.917 71.8987 223.433 67.0922 226.598 61.432C228.745 58.1037 230.305 54.4382 231.212 50.5921C232.193 46.5486 232.687 42.4042 232.684 38.2455C232.688 34.372 232.176 30.5149 231.162 26.7738ZM177.171 119.763C176.696 121.657 175.881 123.452 174.765 125.061C173.459 127.348 171.626 129.297 169.415 130.748C167.253 132.119 164.716 132.798 162.151 132.693H151.647L157.733 102.069H168.237C169.826 102.026 171.404 102.341 172.851 102.993C174.238 103.737 175.405 104.826 176.238 106.152C176.799 107.114 177.182 108.168 177.367 109.263C177.614 110.708 177.729 112.172 177.71 113.638C177.713 115.701 177.466 117.758 176.974 119.763H177.171ZM189.981 54.6267C189.589 56.5687 188.894 58.4383 187.92 60.1681C186.612 62.414 184.777 64.3148 182.57 65.7095C180.445 67.0034 177.995 67.6773 175.502 67.6539H164.752L170.839 37.0303H181.343C183.032 36.9137 184.723 37.2319 186.251 37.9538C187.466 38.631 188.456 39.6446 189.098 40.8703C189.887 41.8303 190.381 42.9945 190.521 44.2244C190.941 47.689 190.825 51.1966 190.178 54.6267H189.981Z" fill="black"/>
</svg>
