<svg xmlns="http://www.w3.org/2000/svg" width="1585.94" height="1977.98" viewBox="0 0 1585.94 1977.98"><path d="M613.39,1985.37s-447.2-34.43-571.07-322.89,140.89-576.93,173.34-691S239,745.4,196.27,700.2c106.85,8.63,290.88,122.68,250.11,471.46,107.25-96.88,4.35-400.38,13.06-652.24S664.83,45.83,838.17,9.22C744,278.33,746,353.52,806.12,538.77s301.56,387.48,301.56,387.48-28.1-284.15,301.56-400.38c-79.15,178.68-29.68,357.33,51.45,497.27s138.91,275.52,134.56,432.67S1554.89,2017.62,613.39,1985.37Zm298-5.42s211.72-15,270.69-140.46-66.88-251-82.31-300.77a128.39,128.39,0,0,1,9.1-118c-50.66,3.72-137.72,53.39-118.33,205.08-50.66-42.15-2-174.13-6.34-283.76a248.74,248.74,0,0,0-179.27-221.93c44.72,117.06,43.53,149.83,15,230.36s-142.87,168.59-142.87,168.59S690.17,1395.46,534.24,1345a217.67,217.67,0,0,1-24.53,216.32A331.46,331.46,0,0,0,446,1749.5C448,1817.93,465.38,1994,911.4,1980Z" transform="translate(-9.54 -9.22)" fill-rule="evenodd"/></svg>