<?xml version="1.0" encoding="UTF-8"?><svg id="Layer_1" xmlns="http://www.w3.org/2000/svg" viewBox="0 0 397.1 305.21"><defs><style>.cls-1{fill:#902fa1;}</style></defs><path class="cls-1" d="M103.72,115.81c-1.19-3.2-2.37-6.39-3.56-9.59-1.33-3.87-2.72-9.47-3.57-14.99,5.64-1.21,16.68-1.27,24.31-1.84s19.22-3.6,24.59-9.82c-2.69-2.33-5.48-3.89-8.34-4.73-1.87,1.74-10.46,6.84-13.21,6.71-8.82-.4-17.37-.52-26.18-1.28,.61-2.65,2.72-7.82,4.06-10.03C124.52,32.68,155.06,10.99,198.06,1.84,204.59,.45,212.48,.02,218.87,.02c0,11.13,0,21.12,0,31.12-25.9,2.64-48.91,11.7-69.48,30.47,3.43,.76,5.08,1.13,6.73,1.5,4.33,1.77,8.66,3.53,13.21,5.39,.02-12.3,1.16-13.59,13.43-12.61,18.55,1.49,36.26,6.21,52.72,15.14,1.96,1.06,6.46,3.06,9.44,3.74-11.02-14.35-5.65-25.02-2.83-42.19-2.97-1.13-6.01-1.34-6.01-1.34,0,0-.28-20.85-.57-31.22,5.02-.1,10.61,.25,15.52,.75,64.71,6.66,125.19,74.95,124.57,140.5-10.53,.01-21.06,.02-31.59,.03-7.16-54.14-38.87-92.77-86.73-105.65-.57-.15-1.17-.17-1.75-.25-1.31,17.76,6.86,28.98,23.78,32.66,19.48,4.24,28.99,13.63,32.25,32.21,5.07,28.88,21.39,50.66,43.65,68.39,9.25,7.37,17.48,5.72,26.67,13.15,4.78,3.87,10.19,9.93,12.13,14.98s2.21,6.7,2.88,11.31c.96,5.29-1.79,14.49-3.51,18.3-5.42,9.74-18.51,9.19-43.11-1.84,3.43,8.62,13.05,14.11,18.87,15.33,5.82,1.23,17.6,2.19,1.41,18.51-6.9,6.96-24.45,15.26-36.18,6.22-7.07-5.09-10.67-12.15-13.21-17.24-1.44-2.88-3.67-14.56-7.68-23.5-8.02-11.28-18.05-18.97-32.77-16.29-21.16,3.85-41.19,2.02-60.59-8.19-3.99-2.1-9.48-2.9-15.67,1.03-2.22,1.41-4.76,3.05-7.19,4.72-6.27-5.99-12.04-11.5-17.82-17.02l-1.89-1.68c2.56-2.79,5.12-5.58,9.21-10.04-8.62,3.64-15.33,6.27-21.85,9.29-6.89,3.19-13.61,6.76-20.98,10.46-5.54-9.68-10.77-18.83-16-27.98-.39-3.2,2.84-4.57,4.85-5.38,4.01-1.61,51.72-14.21,51.72-14.21,0,0-21.2,1.13-31.68,3.39-5.35-8.06-7.79-15.02-11.11-24.52,4.06-1.25,8.06-2.82,12.21-3.67,4.33-.89,8.8-1.17,13.22-1.56,4.03-.36,8.08-.5,12.11-.74-20.31-4.43-40.28-2.59-59.95,1.47-7.92,1.64-12.93,.79-15.59-7.18Z"/><path class="cls-1" d="M235.85,299.89c.05-8.33,.59-18.17-.06-26.45-.42-5.4,3.12-5.76,5.15-6.03,25.27-3.35,47.15-13.75,65.97-30.87,3.84,10.87,5.53,15.07,11.57,26.13,1.13,2.07,.57,5.54-1.7,7.44-17.32,11.04-33.84,21.74-54.29,25.75-8.85,1.74-17.61,3.23-26.65,4.02Z"/><path class="cls-1" d="M2.27,157.99c-.42-1.98-1.94-5.98-2.27-7.53,15.01-.9,29.75-1.91,44.5-2.52,1.76-.07,4.58,1.55,5.25,3.11,5.08,11.75,9.82,23.64,14.4,35.59,.42,1.11,.78,4.04-1.59,4.43-9.07,2.51-18.02,5.74-27.25,7.36-17.72,3.12-13.59,6.58-20.69-9.35-1.05-2.36-2.06-5.73-3.32-8-.7-1.73-1.4-3.46-2.09-5.19-2.68-6.64-4.25-11.27-6.93-17.91Z"/><path class="cls-1" d="M155.42,282.69c-4.56-3.15-1.94-5.57-.96-7.1,4.76-7.46,10.2-14.48,14.75-20.78,16.87,5.14,32.88,10.01,49.3,15.02,0,9.56,0,20.17,0,30.78-6.79,0-20.29-2.41-26.11-4.2-15.07-4.65-21.67-7.35-36.99-13.71Z"/><path class="cls-1" d="M55.99,288.37c-.7-2.83-1.4-5.67-1.9-7.68,13.95-8.71,27.46-17.15,41.69-26.03,5.41,10.89,11.23,22.52,16.88,34.24,.34,.7-.69,2.07-1.09,3.12-13.41,4.37-26.71,9.12-40.31,12.8-3.43,1.48-6.96-1.48-9.16-4.21-.68-1.73-2.23-3.17-2.91-4.9-1.07-2.44-2.14-4.89-3.2-7.33Z"/><path class="cls-1" d="M148.94,202.61c8.31,10.07,16.61,20.14,25.76,31.23-8.64,10.11-17.23,20.14-26.86,31.41-8.68-13.23-16.79-25.2-24.33-37.52-1.01-1.64-.05-5.87,1.49-7.46,5.96-6.17,12.53-11.75,18.87-17.56,2.14-.71,2.94-2.04,5.08-.1Z"/><path class="cls-1" d="M42.55,133.78c-5.64-15.58-11.29-31.16-17.31-47.78,13.03,1.58,24.76,2.94,36.47,4.49,1.26,.17,3.16,1.22,3.44,2.22,3.67,13.29,7.1,26.64,10.59,39.98-11.06,.36-22.13,.72-33.19,1.08Z"/><path class="cls-1" d="M98.72,179.1c6.05,12.46,11.59,23.55,16.75,34.82,.78,1.7,.64,4.86-.46,6.23-6.61,8.24-13.62,16.16-21.93,25.85-7.99-16.35-15.02-30.73-22.07-45.16,9.56-7.5,18.14-14.23,27.7-21.74Z"/><path class="cls-1" d="M112.2,133.54c3.69,8.36,7.37,16.73,11.4,25.87-10.01,4.58-19.58,8.97-30.41,13.93-4.03-10.57-8.06-21.15-12.34-32.39,9.07-2.93,17.19-5.55,25.31-8.17,2.41-.62,5.01-1.67,6.04,.76Z"/><path class="cls-1" d="M55.99,288.37c1.07,2.44,2.14,4.89,3.2,7.33-1.07-2.44-2.14-4.89-3.2-7.33Z"/></svg>