<?xml version="1.0" encoding="UTF-8" standalone="no"?>
<svg
   id="Layer_1"
   viewBox="0 0 3617756.2 99162.01"
   version="1.1"
   sodipodi:docname="GTO-logo-white-OK.svg"
   inkscape:export-filename="logo.svg"
   inkscape:export-xdpi="96"
   inkscape:export-ydpi="96"
   width="3617756.2"
   height="99162.008"
   xmlns:inkscape="http://www.inkscape.org/namespaces/inkscape"
   xmlns:sodipodi="http://sodipodi.sourceforge.net/DTD/sodipodi-0.dtd"
   xmlns="http://www.w3.org/2000/svg"
   xmlns:svg="http://www.w3.org/2000/svg">
  <sodipodi:namedview
     id="namedview176"
     pagecolor="#ffffff"
     bordercolor="#000000"
     borderopacity="0.25"
     inkscape:showpageshadow="2"
     inkscape:pageopacity="0.0"
     inkscape:pagecheckerboard="0"
     inkscape:deskcolor="#d1d1d1"
     showgrid="false">
    <inkscape:grid
       type="xygrid"
       id="grid282" />
  </sodipodi:namedview>
  <defs
     id="defs115">
    <style
       id="style113">.cls-1{fill:#fff;}</style>
  </defs>
  <g
     id="g143">
    <path
       class="cls-1"
       d="m 635.17,198.32 c -10.41,0 -20.44,0.44 -30.41,-0.13 -8.61,-0.5 -14.84,-4.95 -14.93,-14.4 -0.09,-9.55 5.38,-17.05 14.67,-17.34 18.47,-0.58 37.01,-0.52 55.46,0.44 9.69,0.5 15.15,8.77 15.45,18.44 0.44,14.27 1.1,28.66 -0.33,42.79 -0.61,6.02 -4.91,13.6 -9.89,16.92 -31.5,20.99 -66.17,27.05 -102.6,16.39 -35.36,-10.35 -54.03,-36.18 -57.99,-71.75 -1.71,-15.4 -0.72,-31.93 3.04,-46.95 10.18,-40.73 45.65,-63.16 93,-61.43 18.95,0.69 37.24,4.3 51.46,17.35 7.36,6.76 13.24,16.02 17.3,25.25 4.16,9.45 0.22,18.4 -9.38,23.31 -9.48,4.85 -17.97,2.8 -24.62,-5.64 -2.14,-2.72 -4.08,-5.63 -5.82,-8.62 -8.76,-15.09 -22.15,-20.5 -39.01,-19.26 -17.67,1.29 -30.96,9.3 -38.16,25.64 -9.65,21.94 -9.58,44.4 -0.07,66.27 9.74,22.4 31.57,28.63 53.99,25.24 6.22,-0.57 11.1,-2.2 12.61,-2.54 17.35,-3.87 18.49,-8.77 16.24,-29.97 z"
       id="path117" />
    <path
       class="cls-1"
       d="m 1619.38,265.95 c -70.45,-0.08 -96.43,-50.3 -91.12,-104.54 4.42,-45.13 28.15,-71.78 66.96,-78.97 68.34,-12.66 118.09,34.87 108.87,104.02 -5.88,44.09 -27.4,69.63 -65.81,77.53 -7.13,1.47 -14.54,1.54 -18.9,1.97 z m 40.75,-108.57 c -3.14,-25.45 -17.36,-40.84 -40.81,-41.62 -23.91,-1.6 -41.86,11.15 -46.5,37.24 -2.55,14.36 -2.23,30.09 0.72,44.43 4.49,21.85 22.28,34.04 42.89,33.9 21.01,-0.14 36.73,-14.71 42.73,-36.25 2.15,-7.71 2.24,-28.66 0.97,-37.71 z"
       id="path119" />
    <path
       class="cls-1"
       d="m 1419.65,142.11 c 8.99,-8.06 16.71,-11.47 26.18,-13.3 28.8,-5.55 53.51,9.58 63.46,37.77 6.48,18.37 6.36,37.07 1.28,55.83 -12.27,45.26 -62.71,57.71 -92.76,29.97 0,9.71 0.65,34.03 -0.05,48.81 -1.68,9.72 -7.83,13.72 -19.81,13.7 -9.54,-0.02 -15.97,-4.72 -17.09,-14.18 -0.68,-5.74 -0.31,-12.15 -0.33,-17.92 -0.1,-42.11 -0.06,-84.21 -0.05,-126.32 0,-2.7 -0.05,-5.42 0.18,-8.11 0.82,-9.77 5.86,-20.06 17.59,-20.39 12.17,-0.34 14.8,4.59 21.4,14.11 z m 51.76,35.82 c -3.7,-9.23 -12.41,-18.54 -22.7,-18.88 -10.09,-0.33 -18.29,5.28 -22.9,14.11 -8.73,16.73 -7.77,33.53 0.25,47.98 10.41,18.08 34.15,16.93 43.49,-1.64 5.59,-11.11 4.66,-34.58 1.85,-41.58 z"
       id="path121" />
    <path
       class="cls-1"
       d="m 1026.86,250.41 c -15.75,10.89 -32.62,17.44 -52.01,15.46 -21.94,-2.24 -37.47,-16.45 -38.71,-35.96 -1.32,-20.83 10.5,-35.92 32.64,-41.12 16.48,-3.87 34.59,-7.45 51.13,-11.91 1.06,-0.29 2.45,-15.54 -6.22,-18.23 -11.02,-3.42 -24.45,-2.19 -33.45,5.7 -3.41,2.99 -5.91,7.12 -8.3,11.05 -5.28,8.69 -12.94,9.43 -21.04,5.82 -8.05,-3.59 -10.78,-10.66 -8.79,-19.25 4.69,-20.24 20.03,-29.47 38.24,-32 15.73,-2.19 32.27,-1.31 48.12,0.74 18.03,2.33 28.96,14.42 30.76,32.62 1.59,16.07 1.07,32.33 2.01,48.48 0.53,9.17 1.29,18.48 3.48,27.35 2.55,10.31 3.29,19.4 -7.7,24.83 -10.49,5.18 -18.52,0.64 -25.16,-7.69 -1.41,-1.77 -2.93,-3.46 -5,-5.88 z m -5.71,-47.07 c -11.14,2.6 -22.29,4.97 -33.31,7.84 -7.57,1.97 -13.83,5.77 -12.4,15.12 1.45,9.44 8.56,12.25 16.8,12.42 20.07,0.42 31.49,-13.49 28.91,-35.38 z"
       id="path123" />
    <path
       class="cls-1"
       d="m 835.14,208.4 c -0.34,25.57 23.18,36.72 42.37,26.33 6.31,-3.42 11.76,-8.66 17.11,-13.59 6.84,-6.3 14.38,-8.35 21.86,-2.67 8.06,6.13 5.9,14.53 1.61,21.89 -8.13,13.94 -21.44,21.4 -36.59,23.94 -28.16,4.72 -55.06,2.37 -74.3,-22.61 -16.93,-21.98 -18.19,-59.58 -3.61,-84.44 14.14,-24.1 45.8,-35.56 76.04,-27.51 25.89,6.89 43.49,28.77 43.78,54.41 0.18,15.57 -5.17,22.39 -20.68,23.3 -17.68,1.04 -35.44,0.7 -53.16,0.94 -4.56,0.06 -9.12,0 -14.45,0 z m 49.11,-25.64 c -1.93,-17.28 -11.19,-26.19 -25.7,-25.49 -13.46,0.65 -21.95,9.85 -22.93,25.49 z"
       id="path125" />
    <path
       class="cls-1"
       d="m 1207.5,120.25 c -12.75,0 -23.86,0.22 -34.96,-0.06 -14.5,-0.36 -21.34,-6.75 -21.16,-17.88 0.17,-10.71 6.77,-18.43 20.58,-18.53 37.77,-0.27 75.54,-0.28 113.3,0.02 13.74,0.11 20.21,7.39 20.16,18.28 -0.05,10.76 -6.61,17.66 -20.4,18.07 -11.47,0.34 -22.95,0.07 -35.62,0.07 0,9.52 0,15.42 0,23.8 0,32.02 0.08,64.04 -0.06,96.06 -0.05,10.9 -2.23,21.2 -14.31,25.07 -14.92,4.78 -27.11,-4.72 -27.3,-21.9 -0.42,-37.03 -0.2,-74.07 -0.24,-111.1 0,-4.2 0,-5.93 0,-11.91 z"
       id="path127" />
    <path
       class="cls-1"
       d="m 1824.36,131.58 c 0.33,-1.71 0.64,-2.47 0.61,-3.22 -1.69,-43.04 21.47,-50.95 62.05,-45.49 11.17,1.5 16.65,9.51 14.6,18.48 -2.31,10.1 -9.7,11.57 -18.7,10.75 -17.91,-1.63 -19.97,0.76 -17.56,19.36 9.77,2.69 24.57,-1.26 24.81,15.61 0.25,17.34 -14.7,12.99 -25.9,15.86 0,22.51 0,45.15 0,67.79 0,5.02 0.23,10.06 -0.18,15.05 -1.11,13.38 -8.61,20.66 -20.44,20.25 -11.11,-0.39 -18.28,-7.96 -18.48,-20.89 -0.35,-22.77 -0.11,-45.55 -0.12,-68.33 0,-4.55 0,-9.1 0,-14.19 -11.25,-1.49 -24.07,-0.75 -23.51,-16.48 0.52,-14.48 12.82,-12.72 22.83,-14.54 z"
       id="path129" />
    <path
       class="cls-1"
       d="m 1732.38,131.58 c 0.33,-1.71 0.64,-2.47 0.61,-3.22 -1.69,-43.04 21.47,-50.95 62.05,-45.49 11.17,1.5 16.65,9.51 14.6,18.48 -2.31,10.1 -9.7,11.57 -18.7,10.75 -17.91,-1.63 -19.97,0.76 -17.56,19.36 9.77,2.69 24.57,-1.26 24.81,15.61 0.25,17.34 -14.7,12.99 -25.9,15.86 0,22.51 0,45.15 0,67.79 0,5.02 0.23,10.06 -0.18,15.05 -1.11,13.38 -8.61,20.66 -20.44,20.25 -11.11,-0.39 -18.28,-7.96 -18.48,-20.89 -0.35,-22.77 -0.11,-45.55 -0.12,-68.33 0,-4.55 0,-9.1 0,-14.19 -11.25,-1.49 -24.07,-0.75 -23.51,-16.48 0.52,-14.48 12.82,-12.72 22.83,-14.54 z"
       id="path131" />
    <path
       class="cls-1"
       d="m 1085.98,162.45 c -10.05,-1.4 -18.22,-4.25 -18.35,-15.07 -0.13,-11.35 8.46,-14.31 18.49,-15.68 0,-8.34 -0.26,-16.01 0.06,-23.66 0.57,-14.03 7.23,-21.68 18.67,-21.98 12.08,-0.32 19.65,7.58 20.25,21.63 0.33,7.67 0.06,15.37 0.06,23.47 9.8,0.7 26.28,-0.92 25.6,16.66 0.03,13.65 -15.02,13.5 -25.3,13.92 0,20.82 -0.08,42.82 0.05,63.58 0.04,6.16 3.34,9.19 9.69,8.35 1.91,-0.26 3.83,-0.46 5.73,-0.77 9.81,-1.62 18.49,-0.08 20.36,11.33 1.74,10.65 -4.95,17.51 -14.55,18.84 -12.41,1.72 -25.32,2.56 -37.68,1.03 -11.49,-1.43 -19.53,-9.99 -20.72,-21.96 -1.56,-15.69 -1.81,-31.53 -2.29,-47.31 -0.32,-10.39 -0.06,-20.8 -0.06,-32.37 z"
       id="path133" />
    <path
       class="cls-1"
       d="m 735.54,139.86 c 17,-13.98 33.11,-15.96 48.95,-6.14 8.41,5.21 12.91,12.43 8.63,22.39 -4.03,9.38 -11.98,12 -21.07,8.93 -24.86,-8.4 -30.44,2.93 -32.6,24.1 -1.6,15.67 -0.83,31.58 -1.24,47.38 -0.12,4.6 -0.25,9.28 -1.13,13.78 -2.05,10.51 -9.3,16.18 -19.49,15.83 -9.9,-0.34 -17.74,-6.91 -17.89,-17.52 -0.5,-34.3 -0.4,-68.62 0.03,-102.93 0.11,-8.61 4.38,-15.63 13.87,-17.51 10.31,-2.04 18.03,1.39 21.94,11.68 z"
       id="path135" />
    <g
       id="g141">
      <path
         class="cls-1"
         d="m 1316.44,196.96 c 0,-15.81 -0.2,-31.63 0.07,-47.44 0.23,-13.75 7.21,-21.43 18.82,-21.52 11.69,-0.09 19.72,7.24 19.96,20.75 0.56,32 0.59,64.03 0,96.03 -0.27,14.38 -8.36,21.96 -20.32,21.66 -11.63,-0.29 -18.3,-8.46 -18.48,-23.19 -0.18,-15.43 -0.04,-30.86 -0.03,-46.29 z"
         id="path137" />
      <path
         class="cls-1"
         d="m 1355.12,100.5 c 0.14,10.62 -7.97,18.42 -19.31,18.59 -11.57,0.17 -19.58,-7.12 -19.66,-17.89 -0.08,-10.68 7.93,-18.5 19.12,-18.67 11.36,-0.17 19.72,7.4 19.86,17.98 z"
         id="path139" />
    </g>
  </g>
  <g
     id="g165">
    <path
       class="cls-1"
       d="m 103.72,115.81 c -1.19,-3.2 -2.37,-6.39 -3.56,-9.59 -1.33,-3.87 -2.72,-9.47 -3.57,-14.99 5.64,-1.21 16.68,-1.27 24.31,-1.84 7.63,-0.57 19.22,-3.6 24.59,-9.82 -2.69,-2.33 -5.48,-3.89 -8.34,-4.73 -1.87,1.74 -10.46,6.84 -13.21,6.71 -8.82,-0.4 -17.37,-0.52 -26.18,-1.28 0.61,-2.65 2.72,-7.82 4.06,-10.03 22.7,-37.56 53.24,-59.25 96.24,-68.4 6.53,-1.39 14.42,-1.82 20.81,-1.82 0,11.13 0,21.12 0,31.12 -25.9,2.64 -48.91,11.7 -69.48,30.47 3.43,0.76 5.08,1.13 6.73,1.5 4.33,1.77 8.66,3.53 13.21,5.39 0.02,-12.3 1.16,-13.59 13.43,-12.61 18.55,1.49 36.26,6.21 52.72,15.14 1.96,1.06 6.46,3.06 9.44,3.74 -11.02,-14.35 -5.65,-25.02 -2.83,-42.19 -2.97,-1.13 -6.01,-1.34 -6.01,-1.34 0,0 -0.28,-20.85 -0.57,-31.22 5.02,-0.1 10.61,0.25 15.52,0.75 64.71,6.66 125.19,74.95 124.57,140.5 -10.53,0.01 -21.06,0.02 -31.59,0.03 -7.16,-54.14 -38.87,-92.77 -86.73,-105.65 -0.57,-0.15 -1.17,-0.17 -1.75,-0.25 -1.31,17.76 6.86,28.98 23.78,32.66 19.48,4.24 28.99,13.63 32.25,32.21 5.07,28.88 21.39,50.66 43.65,68.39 9.25,7.37 17.48,5.72 26.67,13.15 4.78,3.87 10.19,9.93 12.13,14.98 1.94,5.05 2.21,6.7 2.88,11.31 0.96,5.29 -1.79,14.49 -3.51,18.3 -5.42,9.74 -18.51,9.19 -43.11,-1.84 3.43,8.62 13.05,14.11 18.87,15.33 5.82,1.23 17.6,2.19 1.41,18.51 -6.9,6.96 -24.45,15.26 -36.18,6.22 -7.07,-5.09 -10.67,-12.15 -13.21,-17.24 -1.44,-2.88 -3.67,-14.56 -7.68,-23.5 -8.02,-11.28 -18.05,-18.97 -32.77,-16.29 -21.16,3.85 -41.19,2.02 -60.59,-8.19 -3.99,-2.1 -9.48,-2.9 -15.67,1.03 -2.22,1.41 -4.76,3.05 -7.19,4.72 -6.27,-5.99 -12.04,-11.5 -17.82,-17.02 l -1.89,-1.68 c 2.56,-2.79 5.12,-5.58 9.21,-10.04 -8.62,3.64 -15.33,6.27 -21.85,9.29 -6.89,3.19 -13.61,6.76 -20.98,10.46 -5.54,-9.68 -10.77,-18.83 -16,-27.98 -0.39,-3.2 2.84,-4.57 4.85,-5.38 4.01,-1.61 51.72,-14.21 51.72,-14.21 0,0 -21.2,1.13 -31.68,3.39 -5.35,-8.06 -7.79,-15.02 -11.11,-24.52 4.06,-1.25 8.06,-2.82 12.21,-3.67 4.33,-0.89 8.8,-1.17 13.22,-1.56 4.03,-0.36 8.08,-0.5 12.11,-0.74 -20.31,-4.43 -40.28,-2.59 -59.95,1.47 -7.92,1.64 -12.93,0.79 -15.59,-7.18 z"
       id="path145" />
    <path
       class="cls-1"
       d="m 235.85,299.89 c 0.05,-8.33 0.59,-18.17 -0.06,-26.45 -0.42,-5.4 3.12,-5.76 5.15,-6.03 25.27,-3.35 47.15,-13.75 65.97,-30.87 3.84,10.87 5.53,15.07 11.57,26.13 1.13,2.07 0.57,5.54 -1.7,7.44 -17.32,11.04 -33.84,21.74 -54.29,25.75 -8.85,1.74 -17.61,3.23 -26.65,4.02 z"
       id="path147" />
    <path
       class="cls-1"
       d="M 2.27,157.99 C 1.85,156.01 0.33,152.01 0,150.46 c 15.01,-0.9 29.75,-1.91 44.5,-2.52 1.76,-0.07 4.58,1.55 5.25,3.11 5.08,11.75 9.82,23.64 14.4,35.59 0.42,1.11 0.78,4.04 -1.59,4.43 -9.07,2.51 -18.02,5.74 -27.25,7.36 -17.72,3.12 -13.59,6.58 -20.69,-9.35 -1.05,-2.36 -2.06,-5.73 -3.32,-8 -0.7,-1.73 -1.4,-3.46 -2.09,-5.19 -2.68,-6.64 -4.25,-11.27 -6.93,-17.91 z"
       id="path149" />
    <path
       class="cls-1"
       d="m 155.42,282.69 c -4.56,-3.15 -1.94,-5.57 -0.96,-7.1 4.76,-7.46 10.2,-14.48 14.75,-20.78 16.87,5.14 32.88,10.01 49.3,15.02 0,9.56 0,20.17 0,30.78 -6.79,0 -20.29,-2.41 -26.11,-4.2 -15.07,-4.65 -21.67,-7.35 -36.99,-13.71 z"
       id="path151" />
    <path
       class="cls-1"
       d="m 55.99,288.37 c -0.7,-2.83 -1.4,-5.67 -1.9,-7.68 13.95,-8.71 27.46,-17.15 41.69,-26.03 5.41,10.89 11.23,22.52 16.88,34.24 0.34,0.7 -0.69,2.07 -1.09,3.12 -13.41,4.37 -26.71,9.12 -40.31,12.8 -3.43,1.48 -6.96,-1.48 -9.16,-4.21 -0.68,-1.73 -2.23,-3.17 -2.91,-4.9 -1.07,-2.44 -2.14,-4.89 -3.2,-7.33 z"
       id="path153" />
    <path
       class="cls-1"
       d="m 148.94,202.61 c 8.31,10.07 16.61,20.14 25.76,31.23 -8.64,10.11 -17.23,20.14 -26.86,31.41 -8.68,-13.23 -16.79,-25.2 -24.33,-37.52 -1.01,-1.64 -0.05,-5.87 1.49,-7.46 5.96,-6.17 12.53,-11.75 18.87,-17.56 2.14,-0.71 2.94,-2.04 5.08,-0.1 z"
       id="path155" />
    <path
       class="cls-1"
       d="M 42.55,133.78 C 36.91,118.2 31.26,102.62 25.24,86 c 13.03,1.58 24.76,2.94 36.47,4.49 1.26,0.17 3.16,1.22 3.44,2.22 3.67,13.29 7.1,26.64 10.59,39.98 -11.06,0.36 -22.13,0.72 -33.19,1.08 z"
       id="path157" />
    <path
       class="cls-1"
       d="m 98.72,179.1 c 6.05,12.46 11.59,23.55 16.75,34.82 0.78,1.7 0.64,4.86 -0.46,6.23 -6.61,8.24 -13.62,16.16 -21.93,25.85 -7.99,-16.35 -15.02,-30.73 -22.07,-45.16 9.56,-7.5 18.14,-14.23 27.7,-21.74 z"
       id="path159" />
    <path
       class="cls-1"
       d="m 112.2,133.54 c 3.69,8.36 7.37,16.73 11.4,25.87 -10.01,4.58 -19.58,8.97 -30.41,13.93 -4.03,-10.57 -8.06,-21.15 -12.34,-32.39 9.07,-2.93 17.19,-5.55 25.31,-8.17 2.41,-0.62 5.01,-1.67 6.04,0.76 z"
       id="path161" />
    <path
       class="cls-1"
       d="m 55.99,288.37 c 1.07,2.44 2.14,4.89 3.2,7.33 -1.07,-2.44 -2.14,-4.89 -3.2,-7.33 z"
       id="path163" />
  </g>
  <g
     id="g173">
    <path
       class="cls-1"
       d="m 820.87,83.2 c -0.16,12.09 10.96,17.37 20.04,12.45 2.99,-1.62 5.56,-4.09 8.09,-6.43 3.24,-2.98 6.8,-3.95 10.34,-1.26 3.81,2.9 2.79,6.87 0.76,10.35 -3.85,6.6 -10.14,10.12 -17.31,11.32 -13.32,2.23 -26.04,1.12 -35.14,-10.69 -8.01,-10.4 -8.6,-28.18 -1.71,-39.94 6.69,-11.4 21.66,-16.82 35.96,-13.01 12.24,3.26 20.57,13.61 20.71,25.74 0.08,7.36 -2.45,10.59 -9.78,11.02 -8.36,0.49 -16.76,0.33 -25.14,0.44 -2.16,0.03 -4.31,0 -6.83,0 z M 844.1,71.07 c -0.91,-8.17 -5.29,-12.39 -12.16,-12.06 -6.37,0.31 -10.38,4.66 -10.85,12.06 h 23 z"
       id="path167" />
    <path
       class="cls-1"
       d="m 687.3,40.59 c -5.95,0 -11.14,0.1 -16.32,-0.03 -6.77,-0.17 -9.96,-2.86 -9.88,-8.06 0.08,-5 3.16,-7.74 9.61,-7.78 17.63,-0.13 35.27,-0.13 52.9,0 6.42,0.05 9.44,2.87 9.41,7.96 -0.02,5.02 -3.08,7.67 -9.52,7.86 -5.35,0.16 -10.72,0.03 -16.63,0.03 0,4.44 0,8.36 0,12.27 0,14.95 0.04,29.9 -0.03,44.85 -0.02,5.09 -1.04,9.9 -6.68,11.7 -6.97,2.23 -12.66,-2.21 -12.75,-10.22 -0.19,-17.29 -0.09,-34.58 -0.11,-51.87 0,-1.96 0,-3.92 0,-6.72 z"
       id="path169" />
    <path
       class="cls-1"
       d="m 738.67,39.19 c 0,-9.71 3.26,-14.57 9.79,-14.57 6.85,0 10.28,4.01 10.28,12.04 v 15.17 c 2.97,-2.17 5.64,-3.73 7.99,-4.69 2.35,-0.96 5.27,-1.44 8.73,-1.44 5.7,0 10.3,1.83 13.81,5.48 3.51,3.65 5.27,8.25 5.27,13.78 v 32.02 c 0,8.91 -3.3,13.36 -9.91,13.36 -6.61,0 -10.28,-4.29 -10.28,-12.88 l 0.25,-27.81 c 0,-1.85 -0.74,-3.49 -2.23,-4.94 -1.49,-1.44 -3.22,-2.17 -5.2,-2.17 -5.62,0 -8.42,5.18 -8.42,15.53 l 0.12,7.34 0.25,7.46 c 0,5.06 -0.5,8.91 -1.49,11.56 -1.49,4.09 -4.46,6.14 -8.92,6.14 -6.69,0 -10.04,-4.37 -10.04,-13.12 z"
       id="path171" />
  </g>
</svg>
