<svg xmlns="http://www.w3.org/2000/svg" width="1816.76" height="1981.92" viewBox="0 0 1816.76 1981.92"><path d="M1482.77,1991H355c-205.16,0-344.51-125.16-344.51-334.19,0-291.61,68.39-739.35,446.45-739.35,40,0,209,179.35,461.93,179.35s421.93-179.35,461.93-179.35c378.06,0,446.45,447.74,446.45,739.35C1827.28,1865.84,1687.93,1991,1482.77,1991ZM918.9,1000c-273.55,0-495.48-221.93-495.48-495.48S645.35,9.08,918.9,9.08,1414.38,231,1414.38,504.56,1192.45,1000,918.9,1000Z" transform="translate(-10.52 -9.08)"/></svg>