<?xml version="1.0" encoding="UTF-8"?><svg id="Layer_3_copy" xmlns="http://www.w3.org/2000/svg" viewBox="0 0 2032.96 1048.56"><path d="M1896.9,90.55H136.06C60.92,90.55,0,151.47,0,226.62v476.21c0,75.15,60.92,136.06,136.06,136.06H1896.9c75.15,0,136.06-60.92,136.06-136.06V226.62c0-75.15-60.92-136.06-136.06-136.06Zm105.29,610.62c0,59.49-48.23,107.72-107.72,107.72H137.67c-59.49,0-107.72-48.23-107.72-107.72V228.61c0-59.49,48.23-107.72,107.72-107.72H1894.47c59.49,0,107.72,48.23,107.72,107.72v472.57Z"/><path d="M1175.14,3.14h-442.92c-65.75,0-119.06,53.3-119.06,119.06V802.08c0,65.75,53.3,119.06,119.06,119.06h442.92c65.75,0,119.06-53.3,119.06-119.06V122.19c0-65.75-53.3-119.06-119.06-119.06Zm-311.69,639.54c24.34,35.45,60.01,53.18,107.01,53.18s80.99-10.91,101.14-32.72v-114.08h-114.56v-100.45h240.46v264.07c-22.66,29.39-54.7,52.2-96.1,68.4-41.41,16.21-87.29,24.32-137.65,24.32-52.88,0-99.25-12.5-139.11-37.5s-70.65-61.28-92.32-108.85c-21.68-47.57-32.81-103.47-33.36-167.71v-45c0-66.05,10.28-123.24,30.84-171.58,20.56-48.33,50.21-85.29,88.97-110.9,38.75-25.6,84.14-38.41,136.18-38.41,72.46,0,129.11,18.71,169.96,56.13,40.84,37.43,65.05,91.89,72.6,163.4h-122.54c-5.6-37.87-17.98-65.6-37.14-83.18-19.17-17.57-45.53-26.36-79.1-26.36-42.8,0-75.4,17.43-97.78,52.27-22.39,34.85-33.72,86.66-33.99,155.44v42.27c0,69.39,12.17,121.81,36.51,157.26Z"/><path d="M397.06,598.21c0-20.47-7.12-36.19-21.37-47.15-14.24-10.96-39.89-22.52-76.92-34.69-37.04-12.16-66.36-24.15-87.96-35.95-58.88-32.28-88.32-75.76-88.32-130.44,0-28.42,7.89-53.78,23.68-76.06,15.79-22.28,38.46-39.68,68.02-52.21,29.56-12.52,62.73-18.79,99.54-18.79s70.03,6.81,99,20.42c28.96,13.61,51.46,32.82,67.49,57.63,16.03,24.81,24.04,53,24.04,84.55h-106.84c0-24.08-7.48-42.82-22.44-56.19-14.96-13.37-35.97-20.05-63.03-20.05s-46.42,5.6-60.9,16.8c-14.48,11.2-21.72,25.96-21.72,44.26,0,17.11,8.49,31.44,25.46,43,16.97,11.56,41.96,22.4,74.96,32.52,60.77,18.55,105.06,41.55,132.83,69.01,27.78,27.46,41.67,61.67,41.67,102.62,0,45.53-16.98,81.24-50.93,107.13-33.95,25.9-79.66,38.84-137.11,38.84-39.89,0-76.21-7.41-108.97-22.22-32.76-14.81-57.75-35.11-74.96-60.88-17.22-25.77-25.82-55.64-25.82-89.61h107.19c0,58.06,34.19,87.08,102.56,87.08,25.4,0,45.23-5.24,59.47-15.72,14.25-10.48,21.37-25.11,21.37-43.9Z"/><path d="M1536.96,213.28l119.85,376.41,119.21-376.41h126.26V732.27h-96.46v-141.87l9.61-244.88-125.94,386.74h-66.01l-125.62-386.39,9.61,244.52v141.87h-96.13V213.28h125.62Z"/></svg>