<svg width="595" height="173" viewBox="0 0 595 173" fill="none" xmlns="http://www.w3.org/2000/svg">
<path fill-rule="evenodd" clip-rule="evenodd" d="M364.601 173H546L553.116 124H372.413L364.601 173ZM368.362 124H0L6.47263 173H360.551L368.362 124Z" fill="url(#paint0_linear)"/>
<g clip-path="url(#clip0)">
<path d="M105.343 0H129.876L109.533 105H85L105.343 0ZM100.099 82.0596H141.238L136.898 105H95.8799L100.099 82.0596ZM105.645 41.1054H147.356L142.896 63.8946H101.154L105.645 41.1054ZM116.103 0H157.241L152.902 22.9707H111.763L116.103 0Z" fill="black"/>
<path d="M169.357 0H193.89L173.546 105H149.014L169.357 0ZM164.113 82.0596H203.594L199.254 105H159.773L164.113 82.0596Z" fill="black"/>
<path d="M229.935 0H254.468L234.124 105H209.592L229.935 0Z" fill="black"/>
<path d="M261.942 0H326.227L321.917 22.9707H257.602L261.942 0ZM278.518 16.3515H303.051L285.751 105H261.339L278.518 16.3515Z" fill="black"/>
<path d="M472.97 0H497.472L477.159 105H452.627L472.97 0ZM467.726 82.0596H508.774L504.434 105H463.386L467.726 82.0596ZM473.241 41.1054H514.983L510.492 63.8946H468.781L473.241 41.1054ZM483.729 0H524.868L520.528 22.9707H479.39L483.729 0Z" fill="black"/>
<path d="M530.685 0H595L590.66 22.9707H526.345L530.685 0ZM547.291 16.3515H571.824L554.615 105H530.082L547.291 16.3515Z" fill="black"/>
<path d="M455.369 16.4421C454.901 14.5045 454.235 12.6205 453.38 10.8204C451.245 7.2864 448.093 4.48353 444.339 2.78063C439.994 0.82356 435.266 -0.126849 430.505 -1.62674e-05H398.016L390.06 41.1054H350.579L354.105 22.9706H381.591L385.901 -1.62674e-05H333.972L326.016 41.1054L321.616 63.8946L313.659 105H365.557L369.867 82.0596H342.743L346.269 63.9249H385.75L377.763 105.03H411.729C418.304 105.194 424.82 103.752 430.716 100.829C435.856 98.25 440.239 94.3755 443.435 89.5855C444.531 87.3484 445.409 85.0102 446.057 82.6036C446.703 80.0861 447.027 77.4961 447.021 74.8963C447.016 72.7449 446.742 70.6024 446.207 68.519C445.711 66.494 444.929 64.5502 443.887 62.7461C442.689 60.739 441.148 58.9589 439.336 57.487C437.456 55.9749 435.294 54.8548 432.977 54.1926V50.4447C437.07 50.1975 441.032 48.9076 444.489 46.6969C447.85 44.5003 450.623 41.5117 452.566 37.9922C453.885 35.9227 454.843 33.6436 455.399 31.2521C456.002 28.7379 456.306 26.161 456.304 23.5751C456.306 21.1666 455.992 18.7683 455.369 16.4421ZM422.217 74.2617C421.926 75.4397 421.426 76.5556 420.74 77.5561C419.939 78.978 418.813 80.1896 417.455 81.0924C416.127 81.9447 414.57 82.3667 412.995 82.3013H406.545L410.282 63.2599H416.732C417.708 63.2329 418.677 63.4293 419.565 63.8342C420.417 64.2968 421.133 64.9739 421.645 65.7988C421.989 66.3968 422.224 67.052 422.338 67.7331C422.49 68.6316 422.56 69.5421 422.549 70.4533C422.55 71.7363 422.399 73.0149 422.097 74.2617H422.217ZM430.083 33.7608C429.843 34.9683 429.415 36.1308 428.818 37.2064C428.014 38.6029 426.888 39.7847 425.532 40.652C424.228 41.4564 422.724 41.8755 421.193 41.861H414.592L418.329 22.8195H424.779C425.816 22.7471 426.854 22.9449 427.793 23.3938C428.539 23.8148 429.146 24.4451 429.541 25.2072C430.025 25.8041 430.329 26.528 430.415 27.2927C430.672 29.447 430.601 31.628 430.204 33.7608H430.083Z" fill="#FFDE17"/>
</g>
<path d="M213.55 130.5L207.3 166H217.85C225.2 166 227.85 162.25 228.65 157.25L228.85 156.05C229.7 151.2 228.1 148.45 224.75 147.7C228.7 146.9 230.55 144.4 231.15 140.35L231.3 139.15C232.15 133.25 228.15 130.5 222.65 130.5H213.55ZM224 141.05C223.55 143.8 222.7 145.6 219.9 145.6H217.85L219.65 135.3H221.35C223.4 135.3 224.8 136.15 224.3 139.5L224 141.05ZM221.65 156.8C221.15 159.55 220.4 161.2 217.3 161.2H215.1L217.05 150H219.15C221.6 150 222.6 151.1 222 154.65L221.65 156.8Z" fill="white"/>
<path d="M253.577 130.5H237.427L231.177 166H247.677L248.627 160.65H239.027L240.827 150.4H249.377L250.327 145.05H241.777L243.427 135.85H252.677L253.577 130.5Z" fill="white"/>
<path d="M281.946 130.5H265.796L259.546 166H276.046L276.996 160.65H267.396L269.196 150.4H277.746L278.696 145.05H270.146L271.796 135.85H281.046L281.946 130.5Z" fill="white"/>
<path d="M295.266 166L296.316 159.9H287.566L292.766 130.5H285.816L279.566 166H295.266Z" fill="white"/>
<path d="M311.369 130.5H304.419L298.169 166H305.119L311.369 130.5Z" fill="white"/>
<path d="M313.933 130.5L312.883 136.4H319.633L314.433 166H321.333L326.533 136.4H333.283L334.383 130.5H313.933Z" fill="white"/>
<path d="M353.138 130.5H336.988L330.738 166H347.238L348.188 160.65H338.588L340.388 150.4H348.938L349.888 145.05H341.338L342.988 135.85H352.238L353.138 130.5Z" fill="white"/>
<path d="M382.056 130.5L375.806 166H386.356C393.706 166 396.356 162.25 397.156 157.25L397.356 156.05C398.206 151.2 396.606 148.45 393.256 147.7C397.206 146.9 399.056 144.4 399.656 140.35L399.806 139.15C400.656 133.25 396.656 130.5 391.156 130.5H382.056ZM392.506 141.05C392.056 143.8 391.206 145.6 388.406 145.6H386.356L388.156 135.3H389.856C391.906 135.3 393.306 136.15 392.806 139.5L392.506 141.05ZM390.156 156.8C389.656 159.55 388.906 161.2 385.806 161.2H383.606L385.556 150H387.656C390.106 150 391.106 151.1 390.506 154.65L390.156 156.8Z" fill="white"/>
<path d="M422.083 130.5H405.933L399.683 166H416.183L417.133 160.65H407.533L409.333 150.4H417.883L418.833 145.05H410.283L411.933 135.85H421.183L422.083 130.5Z" fill="white"/>
<path d="M424.529 130.5L423.479 136.4H430.229L425.029 166H431.929L437.129 136.4H443.879L444.979 130.5H424.529Z" fill="white"/>
<path d="M472.083 130.5H455.933L449.683 166H466.183L467.133 160.65H457.533L459.333 150.4H467.883L468.833 145.05H460.283L461.933 135.85H471.183L472.083 130.5Z" fill="white"/>
<path d="M485.402 166L486.452 159.9H477.702L482.902 130.5H475.952L469.702 166H485.402Z" fill="white"/>
<path d="M501.506 130.5H494.556L488.306 166H495.256L501.506 130.5Z" fill="white"/>
<path d="M504.07 130.5L503.02 136.4H509.77L504.57 166H511.47L516.67 136.4H523.42L524.52 130.5H504.07Z" fill="white"/>
<path d="M543.274 130.5H527.124L520.874 166H537.374L538.324 160.65H528.724L530.524 150.4H539.074L540.024 145.05H531.474L533.124 135.85H542.374L543.274 130.5Z" fill="white"/>
<defs>
<linearGradient id="paint0_linear" x1="215.18" y1="149" x2="46" y2="149" gradientUnits="userSpaceOnUse">
<stop stop-color="#FFDE17"/>
<stop offset="1" stop-color="#FFDE17" stop-opacity="0"/>
</linearGradient>
<clipPath id="clip0">
<rect width="510" height="105" fill="white" transform="translate(85)"/>
</clipPath>
</defs>
</svg>
