<svg xmlns="http://www.w3.org/2000/svg" width="618.35" height="693" viewBox="0 0 618.35 693"><path d="M71.46,3H632.9a28.53,28.53,0,0,1,28.45,28.45V389.6a28.54,28.54,0,0,1-28.45,28.47H71.46A28.54,28.54,0,0,1,43,389.6V31.45A28.53,28.53,0,0,1,71.46,3ZM576.12,476.15V618.33l39.16-46.89,27.57,23.07L558.11,696,473.38,594.51,501,571.44l39.15,46.89V476.15Zm-205.95,0V618.33l39.16-46.89,27.57,23.07L352.17,696,267.44,594.51,295,571.44l39.15,46.89V476.15Zm-205.93,0V618.33l39.15-46.89L231,594.51,146.22,696,61.5,594.51l27.56-23.07,39.15,46.89V476.15Zm205.7-198.42c26.8-7,34.37-37.16,0-47.4-17.27-5-47.69-9.64-72.76-27.07-22-15.26-24.18-46-9.66-68.53,10.5-16.17,28.45-23.55,46.89-26V76.22h35.52v32.64q23.58,3.26,37.34,15.34c12.55,11,19.12,25.73,19.76,44.18l-40.2,1.38q-2.56-15.37-11-22.09c-7.3-5.87-36.12-11.47-52.31.46-9.09,6.71-7.8,17-.37,24.45,8.55,8.54,61.1,17.75,79.87,27.64,20.53,10.87,29.79,28.91,29.79,51.8,0,37.2-29,56.92-62.92,60.54v32.28H334.41V312.15c-38.07-5.39-58.4-28.65-62.94-66.68l39.09-3.88c2.74,15.14,10.3,36.14,59.37,36.14Z" transform="translate(-43 -3)" fill-rule="evenodd"/></svg>